<?xml version="1.0" standalone="no"?>
<!DOCTYPE svg PUBLIC "-//W3C//DTD SVG 1.1//EN" "http://www.w3.org/Graphics/SVG/1.1/DTD/svg11.dtd" >
<svg>
<metadata>
Created by FontForge 20090622 at Thu Feb  4 12:41:05 2016
 By www
Copyright (c) 2012 by TipografiaRamis. All rights reserved.
</metadata>
<defs>
<font id="FoxGrotesqueW03-BoldItalic" horiz-adv-x="600" >
  <font-face 
    font-family="FoxGrotesqueW03-BoldItalic"
    font-weight="700"
    font-style="italic"
    font-stretch="normal"
    units-per-em="1000"
    panose-1="2 0 8 3 3 0 0 2 0 3"
    ascent="800"
    descent="-200"
    x-height="486"
    cap-height="700"
    bbox="-96 -252 1264 962"
    underline-thickness="50"
    underline-position="-100"
    unicode-range="U+0020-U+2122"
  />
<missing-glyph horiz-adv-x="300" 
 />
    <glyph glyph-name=".notdef" horiz-adv-x="300" 
 />
    <glyph glyph-name=".null" horiz-adv-x="0" 
 />
    <glyph glyph-name="nonmarkingreturn" horiz-adv-x="333" 
 />
    <glyph glyph-name="space" unicode=" " horiz-adv-x="240" 
 />
    <glyph glyph-name="exclam" unicode="!" horiz-adv-x="310" 
d="M322 700l-106 -502h-114l70 502h150zM214 134l-23 -134h-134l23 134h134z" />
    <glyph glyph-name="quotedbl" unicode="&#x22;" horiz-adv-x="470" 
d="M204 460h-87l25 240h130zM403 460h-86l25 240h130z" />
    <glyph glyph-name="numbersign" unicode="#" 
d="M608 375h-117l-18 -77h104l-10 -111h-121l-44 -187h-101l44 187h-105l-43 -187h-103l44 187h-100l10 111h116l19 77h-105l9 111h121l51 214h102l-50 -214h105l51 214h101l-51 -214h100zM390 375h-105l-18 -77h105z" />
    <glyph glyph-name="dollar" unicode="$" 
d="M208 -7q-45 5 -79.5 16.5t-59.5 23.5q-29 14 -51 30l73 107q26 -18 56 -31q26 -12 57.5 -21.5t66.5 -9.5t64.5 8.5t50.5 24t33 36t12 44.5q0 29 -24.5 45t-61.5 27t-79.5 22t-79.5 30t-61.5 50.5t-24.5 84.5q0 47 17.5 85.5t48.5 67.5t74.5 47.5t94.5 25.5l14 86h118
l-14 -86q38 -5 69 -13t53 -16q26 -10 45 -21l-78 -109q-20 12 -46 22q-22 8 -52 15.5t-65 7.5q-24 0 -48 -5t-44 -15.5t-32.5 -26.5t-12.5 -39q0 -26 24.5 -40.5t61.5 -25.5t80.5 -22.5t80.5 -32.5t61.5 -55.5t24.5 -90.5q0 -43 -15.5 -83.5t-46.5 -73.5t-77.5 -56
t-108.5 -31l-16 -87h-118z" />
    <glyph glyph-name="percent" unicode="%" horiz-adv-x="930" 
d="M716 710h108l-551 -719h-107zM258 313q-68 0 -106 40.5t-38 110.5q0 54 15.5 99t42 78t61 51t73.5 18q67 0 104.5 -41.5t37.5 -112.5q0 -54 -15.5 -98.5t-42 -77t-61 -50t-71.5 -17.5zM262 407q15 0 29.5 10.5t25 29.5t17 45t6.5 57t-10.5 49t-30.5 18q-15 0 -29.5 -11
t-25 -30t-17 -45.5t-6.5 -57.5q0 -30 10.5 -47.5t30.5 -17.5zM687 -9q-68 0 -106 40.5t-38 110.5q0 54 15.5 99t42 78t61 51t73.5 18q67 0 104.5 -41.5t37.5 -112.5q0 -54 -15.5 -98.5t-42 -77t-61 -50t-71.5 -17.5zM691 85q15 0 29.5 10.5t25 29.5t17 45t6.5 57t-10.5 49
t-30.5 18q-15 0 -29.5 -11t-25 -30t-17 -45.5t-6.5 -57.5q0 -30 10.5 -47.5t30.5 -17.5z" />
    <glyph glyph-name="ampersand" unicode="&#x26;" horiz-adv-x="689" 
d="M629 6q-12 -4 -27 -8q-13 -3 -29.5 -5.5t-36.5 -2.5q-21 0 -38 9t-29 20q-14 13 -25 30q-23 -17 -51 -30q-24 -11 -57 -20t-73 -9q-55 0 -93.5 15t-62.5 40t-35 56.5t-11 63.5q0 51 25.5 92.5t57.5 72.5q37 36 84 65q-11 17 -19 37q-8 17 -13.5 40.5t-5.5 49.5
q0 39 16.5 73t45.5 59.5t67.5 40.5t83.5 15q77 0 118 -38.5t41 -104.5q0 -32 -13.5 -61t-35.5 -55t-50 -48t-57 -40l72 -114q13 18 29 52.5t22 68.5l113 -34q-5 -24 -15 -50t-23.5 -50.5t-29.5 -48t-31 -42.5q7 -11 16 -21.5t20 -10.5q20 0 33 5q7 2 13 5zM348 458l27.5 16
t29 21t23 26.5t9.5 32.5t-11 32.5t-37 14.5q-17 0 -30 -7.5t-22 -19t-14 -24.5t-5 -24q0 -18 9 -34.5t21 -33.5zM288 299q-15 -8 -31 -20t-29.5 -27t-22 -33t-8.5 -36q0 -34 24.5 -54.5t60.5 -20.5q31 0 59.5 13.5t43.5 24.5z" />
    <glyph glyph-name="quotesingle" unicode="'" horiz-adv-x="270" 
d="M204 460h-87l25 240h130z" />
    <glyph glyph-name="parenleft" unicode="(" horiz-adv-x="340" 
d="M418 684q-49 -61 -90 -128t-70.5 -139t-46 -149.5t-16.5 -159.5q0 -65 15.5 -135t53.5 -155l-98 -55q-50 94 -70.5 183t-20.5 173q0 69 13 142.5t43.5 151t81 159t125.5 167.5z" />
    <glyph glyph-name="parenright" unicode=")" horiz-adv-x="340" 
d="M218 739q50 -94 70.5 -181.5t20.5 -171.5q0 -65 -12 -137.5t-42 -151t-81 -162.5t-128 -172l-79 55q48 61 88.5 127t70 137.5t46 148t16.5 158.5q0 66 -15.5 138t-54.5 157z" />
    <glyph glyph-name="asterisk" unicode="*" horiz-adv-x="560" 
d="M539 557l-132 -37l63 -105l-103 -65l-55 108l-94 -110l-78 67l100 105l-121 37l53 106l118 -44l18 131h111l-28 -131l132 45z" />
    <glyph glyph-name="plus" unicode="+" horiz-adv-x="625" 
d="M557 205h-174l-30 -173h-117l30 173h-174l21 118h174l31 173h117l-31 -173h174z" />
    <glyph glyph-name="comma" unicode="," horiz-adv-x="301" 
d="M246 134q-14 -77 -37 -128t-52 -85.5t-62 -56t-66 -38.5l-36 67q34 24 55.5 52t34.5 58.5t20 63.5t13 67h130z" />
    <glyph glyph-name="hyphen" unicode="-" horiz-adv-x="452" 
d="M384 203h-292l21 121h292z" />
    <glyph glyph-name="period" unicode="." horiz-adv-x="294" 
d="M231 134l-23 -134h-134l23 134h134z" />
    <glyph glyph-name="slash" unicode="/" horiz-adv-x="398" 
d="M493 710l-417 -750h-112l411 750h118z" />
    <glyph glyph-name="zero" unicode="0" 
d="M273 -10q-50 0 -89.5 19.5t-67.5 54.5t-42.5 84t-14.5 108q0 102 25.5 185.5t70 143t105 92.5t130.5 33q49 0 88.5 -19.5t67 -54t42 -82.5t14.5 -106q0 -103 -25.5 -187.5t-69.5 -144.5t-104 -93t-130 -33zM288 105q35 0 68 25t58.5 69t41 105.5t15.5 135.5
q0 72 -24.5 113.5t-71.5 41.5q-36 0 -69 -24.5t-59 -69t-41.5 -106t-15.5 -134.5t25 -114.5t73 -41.5z" />
    <glyph glyph-name="one" unicode="1" 
d="M78 116h183l81 459l-163 -60l-21 103l208 83h125l-103 -585h163l-20 -116h-473z" />
    <glyph glyph-name="two" unicode="2" 
d="M497 0h-459l21 116l249 213l64.5 57.5t45.5 48.5t26.5 44.5t8.5 44.5q0 35 -24.5 52t-66.5 17q-27 0 -56.5 -8.5t-54.5 -18.5q-29 -11 -58 -26l-37 102q31 19 69 34q32 13 74 23.5t89 10.5q90 0 144.5 -43t54.5 -124q0 -56 -34 -116.5t-119 -133.5l-207 -177h291z" />
    <glyph glyph-name="three" unicode="3" 
d="M98 161q21 -16 46 -28q21 -11 48.5 -19t59.5 -8q30 0 58 9t49.5 26t34 41t12.5 55q0 39 -30.5 61t-92.5 22h-55l20 115h78q24 0 45 8t36.5 22t25 31.5t9.5 37.5q0 29 -23 44.5t-67 15.5q-27 0 -54 -7.5t-50 -16.5q-26 -11 -50 -24l-33 103q30 17 64 30q29 11 68 21t84 10
q87 0 138.5 -40t51.5 -116q0 -50 -18 -82.5t-39 -52.5q-26 -24 -57 -37q21 -10 39 -28q14 -16 26.5 -42t12.5 -66q0 -61 -23 -108.5t-62.5 -80t-92.5 -49.5t-112 -17q-52 0 -91 9t-65 20q-31 13 -53 30z" />
    <glyph glyph-name="four" unicode="4" 
d="M579 262l-20 -115h-71l-26 -147h-128l26 147h-330l20 115l229 349q9 14 17.5 31.5l16.5 34.5q9 19 17 39l116 -26q-8 -22 -17 -43l-18 -39t-21 -38l-203 -308h193l28 159h128l-28 -159h71z" />
    <glyph glyph-name="five" unicode="5" 
d="M101 166q22 -17 48 -30q23 -11 52.5 -20.5t64.5 -9.5q30 0 59.5 9.5t52 27.5t36.5 45t14 62q0 49 -32.5 73.5t-83.5 24.5q-23 0 -43.5 -4.5t-34.5 -9.5q-18 -6 -31 -13l-71 66l91 313h378l-21 -116h-264l-40 -131q10 2 22 5q11 2 26 3.5t34 1.5q43 0 80.5 -13t65 -38
t43 -61.5t15.5 -83.5q0 -64 -25 -115t-66 -87t-94.5 -55t-111.5 -19t-100 10t-70 22q-33 14 -55 32z" />
    <glyph glyph-name="six" unicode="6" 
d="M516 578q-12 5 -27 9q-13 3 -30 6t-37 3q-70 0 -118 -42.5t-74 -113.5q19 12 44 23q20 8 48.5 15.5t62.5 7.5q43 0 78 -14.5t59 -40t37 -60.5t13 -77q0 -67 -22.5 -122.5t-61 -95.5t-89.5 -62.5t-109 -22.5q-49 0 -90.5 14.5t-71.5 45t-47 78t-17 112.5q0 50 9.5 104.5
t29.5 106.5t50 99t71.5 82.5t94 56t116.5 20.5q32 0 56 -2.5t41 -5.5q19 -4 34 -8zM200 305l-4 -25q-2 -11 -3 -23t-1 -23q0 -26 6 -49.5t19 -41t32.5 -28t46.5 -10.5q28 0 54.5 12.5t47 35t33 53.5t12.5 68q0 45 -24.5 72t-69.5 27q-34 0 -61 -10.5t-47 -23.5
q-23 -15 -41 -34z" />
    <glyph glyph-name="seven" unicode="7" 
d="M617 700l-21 -117l-112 -164t-102 -157t-83 -146.5t-56 -131.5l-116 20q20 67 57.5 141.5t83.5 150t96.5 148.5l97.5 137v4h-314l21 115h448z" />
    <glyph glyph-name="eight" unicode="8" 
d="M192 375q-33 28 -52.5 57t-19.5 76q0 43 21 80t57.5 64t85 42.5t102.5 15.5q48 0 87.5 -11.5t68 -32t44 -49t15.5 -63.5q0 -104 -127 -177q46 -32 71 -69t25 -93q0 -48 -23 -89t-62.5 -71t-93.5 -47t-116 -17q-53 0 -96 13t-74 36.5t-48 56.5t-17 74q0 36 12 66t32.5 55
t48 45.5t59.5 37.5zM360 438q21 9 41 20.5t35.5 24t25.5 27t10 31.5q0 28 -28.5 46t-69.5 18q-23 0 -45.5 -6t-39.5 -16.5t-27.5 -25t-10.5 -31.5q0 -13 9 -25.5t24.5 -24t35 -21t40.5 -17.5zM309 313q-22 -10 -45.5 -22t-43.5 -27.5t-33 -35.5t-13 -45q0 -18 10 -33
t26.5 -25.5t38 -16.5t44.5 -6q26 0 50.5 8t44 21.5t31 32t11.5 39.5q0 20 -10.5 36t-28 29.5t-39 24.5t-43.5 20z" />
    <glyph glyph-name="nine" unicode="9" 
d="M148 123q12 -5 27 -9q13 -4 30 -6.5t37 -2.5q70 0 118 42.5t74 113.5q-20 -13 -44 -23q-21 -9 -49 -16t-62 -7q-44 0 -78.5 14t-58.5 39.5t-37 61t-13 77.5q0 67 22.5 122.5t61 95.5t89.5 62.5t109 22.5q49 0 90.5 -14.5t71.5 -45t47 -78t17 -112.5q0 -51 -9.5 -105
t-29.5 -106t-50 -99t-71.5 -82.5t-94 -56t-116.5 -20.5q-32 0 -56 2.5t-41 5.5q-19 4 -34 8zM464 396l4 25q2 11 3 23t1 23q0 26 -6 49.5t-19 41t-32.5 28t-46.5 10.5q-28 0 -54.5 -12.5t-47 -35t-33 -53.5t-12.5 -68q0 -45 24.5 -72t69.5 -27q34 0 61 10.5t47 23.5
q23 15 41 34z" />
    <glyph glyph-name="colon" unicode=":" horiz-adv-x="294" 
d="M216 134l-24 -134h-134l24 134h134zM278 486l-24 -134h-134l24 134h134z" />
    <glyph glyph-name="semicolon" unicode=";" horiz-adv-x="302" 
d="M293 485l-23 -134h-134l23 134h134zM232 134q-14 -77 -37 -128t-52 -85.5t-62 -56t-66 -38.5l-40 67q34 24 55 52t34 58.5t20 63.5t13 67h135z" />
    <glyph glyph-name="less" unicode="&#x3c;" horiz-adv-x="625" 
d="M523 7l-429 205l18 101l501 204l-24 -133l-330 -119l-1 -5l288 -120z" />
    <glyph glyph-name="equal" unicode="=" horiz-adv-x="625" 
d="M575 306h-465l21 117h465zM539 100h-465l21 117h465z" />
    <glyph glyph-name="greater" unicode="&#x3e;" horiz-adv-x="625" 
d="M81 140l330 120l1 5l-288 119l24 133l429 -204l-18 -101l-501 -205z" />
    <glyph glyph-name="question" unicode="?" horiz-adv-x="490" 
d="M507 546q0 -42 -14 -74.5t-36 -60t-48 -50.5l-49 -45t-41 -44.5t-23 -48.5l-5 -25h-124l5 29q7 39 23.5 68.5t37.5 53t43.5 43.5t41.5 39.5t31 41t12 48.5q0 30 -22.5 47.5t-61.5 17.5q-23 0 -45 -6t-41 -13q-22 -9 -42 -19l-34 114q48 23 98 35.5t97 12.5q43 0 79.5 -12
t62.5 -33.5t40.5 -51.5t14.5 -67zM285 134l-24 -134h-134l24 134h134z" />
    <glyph glyph-name="at" unicode="@" horiz-adv-x="920" 
d="M701 -102q-35 -18 -77 -31q-36 -12 -84 -21.5t-102 -9.5q-86 0 -153 25.5t-114 71t-71.5 109t-24.5 140.5q0 99 38.5 186t105 152.5t155.5 103.5t190 38q84 0 146.5 -23t104.5 -63.5t62.5 -95t20.5 -118.5q0 -51 -17.5 -108t-53 -104.5t-90 -79t-128.5 -31.5
q-25 0 -46.5 14t-30.5 36q-32 -25 -61 -34.5t-69 -9.5q-26 0 -48 9.5t-39 28t-26.5 44.5t-9.5 59q0 54 20 101.5t53 83t74.5 56t83.5 20.5q25 0 43 -6t30 -13q14 -8 24 -18l15 24h94l-94 -260q-3 -9 -3 -17q0 -12 6.5 -17t14.5 -5q30 0 57.5 19t47.5 50t32 70t12 80
q0 96 -62.5 151.5t-172.5 55.5q-74 0 -141 -30.5t-117 -81.5t-79.5 -118t-29.5 -140q0 -57 18 -104t52.5 -80t85 -51t115.5 -18q42 0 81 8t70 19q35 12 67 28zM567 306q-3 20 -18.5 32t-39.5 12t-46 -11.5t-38.5 -31t-26.5 -45t-10 -53.5t14 -47.5t43 -19.5q26 0 43 8.5
t34 27.5z" />
    <glyph glyph-name="A" unicode="A" horiz-adv-x="705" 
d="M432 472l-10 102l-46 -102l-98 -186h186zM220 172l-90 -172h-140l383 700h143l138 -700h-141l-30 172h-263z" />
    <glyph glyph-name="B" unicode="B" horiz-adv-x="627" 
d="M172 700h245q103 0 157.5 -40.5t54.5 -119.5q0 -48 -18 -80.5t-39 -52.5q-26 -24 -57 -39q21 -10 39 -28q15 -15 27.5 -40.5t12.5 -62.5q0 -58 -21.5 -102.5t-60.5 -74.5t-94 -45t-122 -15h-247zM340 420q81 0 117 26.5t36 77.5q0 31 -24 46t-69 15h-120l-29 -165h89z
M300 114q157 0 157 114q0 39 -30 58.5t-98 19.5h-98l-34 -192h103z" />
    <glyph glyph-name="C" unicode="C" horiz-adv-x="723" 
d="M665 72q-40 -23 -87 -41q-40 -16 -92 -28.5t-109 -12.5q-68 0 -123.5 20.5t-96 59t-62.5 93.5t-22 124q0 89 31 166t86 134t131 90t165 33q70 0 118.5 -19.5t79.5 -45.5t46 -53.5t18 -42.5l-126 -57q-3 10 -12.5 27.5t-27 33.5t-44 28t-63.5 12q-52 0 -99.5 -22
t-83.5 -62t-57 -94.5t-21 -120.5q0 -85 47.5 -136t133.5 -51q42 0 83.5 12t74.5 26q39 17 74 39z" />
    <glyph glyph-name="D" unicode="D" horiz-adv-x="732" 
d="M172 700h240q70 0 127 -19.5t97.5 -56.5t62 -91.5t21.5 -123.5q0 -86 -28 -160.5t-82.5 -130t-134 -87t-181.5 -31.5h-245zM308 118q65 0 115.5 21.5t85.5 59.5t53.5 91t18.5 116q0 81 -49 128t-131 47h-116l-82 -463h105z" />
    <glyph glyph-name="E" unicode="E" horiz-adv-x="598" 
d="M507 0h-458l123 700h450l-21 -119h-316l-29 -164h307l-21 -119h-307l-31 -179h324z" />
    <glyph glyph-name="F" unicode="F" horiz-adv-x="560" 
d="M586 581h-301l-29 -164h290l-21 -119h-290l-52 -298h-134l123 700h435z" />
    <glyph glyph-name="G" unicode="G" horiz-adv-x="770" 
d="M674 57q-35 -19 -78 -34q-37 -13 -88 -23t-111 -10q-76 0 -136 21t-101.5 60t-63.5 95t-22 125q0 92 33 169t89.5 132.5t133 86.5t163.5 31q76 0 126.5 -19.5t82 -45.5t46 -53.5t17.5 -42.5l-122 -57q-3 10 -13 27.5t-29 33.5t-48 28t-69 12q-56 0 -105.5 -22
t-86.5 -61.5t-58 -93.5t-21 -117q0 -44 13.5 -79t39 -60t61.5 -38.5t80 -13.5q34 0 62 4t48 9q24 5 42 13l35 197h128z" />
    <glyph glyph-name="H" unicode="H" horiz-adv-x="723" 
d="M612 0h-136l53 302h-291l-53 -302h-136l123 700h136l-49 -279h291l49 279h136z" />
    <glyph glyph-name="I" unicode="I" horiz-adv-x="296" 
d="M185 0h-136l123 700h136z" />
    <glyph glyph-name="J" unicode="J" horiz-adv-x="367" 
d="M31 125q8 -3 17 -5q17 -5 37 -5q29 0 46.5 23t23.5 57l90 505h135l-90 -506q-17 -96 -70 -149.5t-140 -53.5q-17 0 -33.5 2.5t-28.5 5.5q-15 4 -27 8z" />
    <glyph glyph-name="K" unicode="K" horiz-adv-x="656" 
d="M604 0h-172l-159 311l-10.5 -5t-12.5 -5l-16 -6l-52 -295h-134l123 700h134l-48 -273q25 7 50.5 29t52.5 52l57 63.5t65.5 63.5t77 51.5t92.5 27.5l19 -111q-52 -12 -87 -37t-64.5 -56.5t-59 -66.5t-70.5 -67z" />
    <glyph glyph-name="L" unicode="L" horiz-adv-x="561" 
d="M510 0h-461l123 700h134l-102 -581h327z" />
    <glyph glyph-name="M" unicode="M" horiz-adv-x="832" 
d="M721 0h-134l79 451l20 85l-58 -87l-145 -166h-90l-90 166l-31 87l-10 -85l-79 -451h-134l123 700h152l135 -281l224 281h161z" />
    <glyph glyph-name="N" unicode="N" horiz-adv-x="723" 
d="M612 0h-152l-167 421l-29 114l-9 -134l-70 -401h-136l123 700h151l168 -421l28 -111l9 129l71 403h136z" />
    <glyph glyph-name="O" unicode="O" horiz-adv-x="806" 
d="M378 -10q-69 0 -125.5 22t-96 61.5t-61.5 93.5t-22 118q0 94 32 172t87.5 134t131.5 87.5t165 31.5q69 0 125 -22t95.5 -61t61.5 -93t22 -118q0 -94 -31.5 -172t-87 -134.5t-131.5 -88t-165 -31.5zM394 109q53 0 100 22t82 62t55.5 94.5t20.5 120.5q0 84 -48 133.5
t-131 49.5q-53 0 -100 -22t-82 -61.5t-56 -94t-21 -119.5q0 -85 48 -135t132 -50z" />
    <glyph glyph-name="P" unicode="P" horiz-adv-x="596" 
d="M172 700h227q113 0 168 -50t55 -144q0 -58 -19.5 -108.5t-58 -88t-95.5 -59t-132 -21.5h-94l-40 -229h-134zM338 348q37 0 65 12t46 31.5t27 44.5t9 51q0 18 -6 35.5t-18.5 30.5t-33 21t-48.5 8h-94l-41 -234h94z" />
    <glyph glyph-name="Q" unicode="Q" horiz-adv-x="814" 
d="M325 -7q-57 8 -103.5 33t-79.5 63t-51 88t-18 108q0 94 32 172t87.5 134t131.5 87.5t165 31.5q69 0 125 -22t95.5 -61t61.5 -93t22 -118q0 -74 -19.5 -138.5t-55.5 -116.5t-86.5 -89.5t-111.5 -58.5q4 -3 16 -9t28 -12.5t34 -11.5t35 -5t32 5t26 11q13 7 25 17l51 -95
q-18 -16 -41 -27q-20 -10 -48 -18t-63 -8q-44 0 -94.5 20.5t-94.5 45.5q-51 29 -101 67zM394 109q53 0 100 22t82 62t55.5 94.5t20.5 120.5q0 84 -48 133.5t-131 49.5q-53 0 -100 -22t-82 -61.5t-56 -94t-21 -119.5q0 -85 48 -135t132 -50z" />
    <glyph glyph-name="R" unicode="R" horiz-adv-x="641" 
d="M173 700h225q110 0 164 -45t54 -130q0 -41 -12.5 -76.5t-35.5 -64t-54.5 -48t-69.5 -27.5q23 -7 34.5 -24t17.5 -33l43 -114q5 -14 20.5 -23t48.5 -11l-42 -114q-66 0 -99 22.5t-47 57.5l-51 127q-6 16 -12.5 27t-16.5 18t-25.5 10t-40.5 3h-46l-45 -255h-134zM333 371
q36 0 63 11t46 29.5t28.5 42.5t9.5 50q0 37 -24.5 59t-79.5 22h-90l-37 -214h84z" />
    <glyph glyph-name="S" unicode="S" horiz-adv-x="632" 
d="M108 170q26 -18 56 -31q26 -12 57.5 -21.5t66.5 -9.5t64.5 8.5t50.5 24t33 36t12 44.5q0 29 -24.5 45t-61.5 27t-79.5 22t-79.5 30t-61.5 50.5t-24.5 84.5q0 54 23 97t62.5 72.5t94 45t117.5 15.5q51 0 92 -8.5t70 -18.5q34 -12 61 -27l-78 -109q-20 12 -46 22
q-22 8 -52 15.5t-65 7.5q-24 0 -48 -5t-44 -15.5t-32.5 -26.5t-12.5 -39q0 -26 24.5 -40.5t61.5 -25.5t80.5 -22.5t80.5 -32.5t61.5 -55.5t24.5 -90.5q0 -48 -20 -93t-59.5 -79.5t-98.5 -55.5t-138 -21q-56 0 -100 11t-76 25q-37 16 -65 37z" />
    <glyph glyph-name="T" unicode="T" horiz-adv-x="554" 
d="M605 581h-189l-102 -581h-136l102 581h-189l21 119h514z" />
    <glyph glyph-name="U" unicode="U" horiz-adv-x="725" 
d="M229 279q-2 -10 -3 -23t-1 -27q0 -59 36 -89.5t89 -30.5q31 0 60 10t53.5 31t42.5 53t26 76l75 421h136l-78 -442q-11 -61 -38.5 -110.5t-69.5 -84.5t-98 -54t-123 -19q-56 0 -102 16.5t-78.5 46t-50.5 70t-18 89.5q0 6 0.5 14.5t1.5 18t2.5 19l2.5 15.5l74 421h136z" />
    <glyph glyph-name="V" unicode="V" horiz-adv-x="706" 
d="M778 700l-377 -700h-150l-139 700h142l79 -471l11 -105l47 105l245 471h142z" />
    <glyph glyph-name="W" unicode="W" horiz-adv-x="1052" 
d="M1104 700l-316 -700h-155l-42 422l-2 119l-42 -119l-189 -422h-156l-70 700h140l35 -471l-2 -110l37 111l211 470h132l45 -471l-3 -107l36 106l201 472h140z" />
    <glyph glyph-name="X" unicode="X" horiz-adv-x="660" 
d="M609 0h-156l-110 257h-4l-196 -257h-153l292 364l-151 336h151l100 -235h4l176 235h151l-271 -338z" />
    <glyph glyph-name="Y" unicode="Y" horiz-adv-x="630" 
d="M712 700l-310 -415l-50 -285h-136l51 290l-165 410h152l100 -292h4l199 292h155z" />
    <glyph glyph-name="Z" unicode="Z" horiz-adv-x="638" 
d="M552 0h-533l19 110l436 471h-341l21 119h515l-19 -110l-435 -471h358z" />
    <glyph glyph-name="bracketleft" unicode="[" horiz-adv-x="322" 
d="M234 -200h-212l160 910h212l-18 -101h-99l-125 -710h99z" />
    <glyph glyph-name="backslash" unicode="\" horiz-adv-x="398" 
d="M213 710l148 -750h-113l-153 750h118z" />
    <glyph glyph-name="bracketright" unicode="]" horiz-adv-x="322" 
d="M-10 -101h98l125 710h-99l18 101h212l-160 -910h-211z" />
    <glyph glyph-name="asciicircum" unicode="^" horiz-adv-x="576" 
d="M343 553h-4l-140 -251h-130l245 398h106l105 -398h-129z" />
    <glyph glyph-name="underscore" unicode="_" horiz-adv-x="522" 
d="M502 -171h-521l18 101h521z" />
    <glyph glyph-name="grave" unicode="`" horiz-adv-x="248" 
d="M250 540q-48 10 -83.5 30t-59.5 40q-28 24 -48 51l94 87l144 -147z" />
    <glyph glyph-name="a" unicode="a" horiz-adv-x="597" 
d="M429 346q-9 11 -22 20q-11 8 -29.5 14t-44.5 6q-29 0 -56 -13.5t-47 -37t-32 -55t-12 -67.5q0 -53 30 -82.5t75 -29.5q23 0 42 5.5t32 13.5q15 9 27 20zM520 164q-2 -8 -3.5 -17.5t-1.5 -15.5q0 -13 11.5 -23t37.5 -13l-58 -105q-26 0 -44.5 7.5t-31.5 16.5
q-15 11 -25 23q-18 -13 -40 -24q-19 -9 -46 -16t-59 -7q-41 0 -77.5 13.5t-63.5 40.5t-43 66.5t-16 92.5q0 63 23 116.5t60.5 92.5t86 61t99.5 22q32 0 56 -7.5t39 -15.5q18 -10 29 -22l14 36h110z" />
    <glyph glyph-name="b" unicode="b" horiz-adv-x="590" 
d="M168 700h125l-41 -227q13 6 29 11q14 4 33 7.5t44 3.5q45 0 82.5 -15t64 -42.5t41.5 -67.5t15 -90q0 -68 -25 -121.5t-67.5 -91t-98.5 -57t-117 -19.5q-47 0 -84 8t-63 19q-31 12 -54 28zM190 116q8 -4 19 -8q10 -3 24.5 -5t34.5 -2q33 0 63.5 12.5t53.5 35.5t36.5 54
t13.5 69q0 49 -29 80.5t-77 31.5q-23 0 -40.5 -5t-30.5 -10q-15 -7 -26 -15z" />
    <glyph glyph-name="c" unicode="c" horiz-adv-x="532" 
d="M432 318q-8 26 -30.5 46.5t-60.5 20.5q-29 0 -57 -12.5t-50 -35.5t-35 -54.5t-13 -68.5q0 -51 31 -82t83 -31q28 0 54.5 7t47.5 16q25 11 47 24l32 -101q-28 -17 -60 -29q-27 -11 -63 -19.5t-74 -8.5q-50 0 -91 15.5t-70.5 43.5t-45.5 67.5t-16 87.5q0 64 24.5 118
t66 92.5t95 60t111.5 21.5q51 0 85.5 -15t56.5 -35.5t32 -42.5t13 -36z" />
    <glyph glyph-name="d" unicode="d" horiz-adv-x="605" 
d="M430 355q-9 8 -21 15q-11 5 -27 10t-37 5q-34 0 -63 -14t-50.5 -37.5t-33.5 -54.5t-12 -66q0 -53 30 -82.5t75 -29.5q23 0 42 5.5t32 13.5q15 9 27 20zM520 164q-2 -8 -3.5 -17.5t-1.5 -15.5q0 -13 11.5 -23t37.5 -13l-58 -105q-26 0 -44.5 7.5t-31.5 16.5q-15 11 -25 23
q-18 -13 -40 -24q-19 -9 -46 -16t-59 -7q-41 0 -77.5 13.5t-63.5 40.5t-43 66.5t-16 92.5q0 62 24 115.5t64 92.5t90.5 61.5t104.5 22.5q28 0 47.5 -4t33.5 -9q15 -6 26 -13l41 231h125z" />
    <glyph glyph-name="e" unicode="e" horiz-adv-x="568" 
d="M187 198q2 -40 31 -68.5t85 -28.5q26 0 51.5 7t46.5 16q25 10 47 23l34 -99q-28 -17 -61 -29q-28 -11 -63 -20t-73 -9q-48 0 -89 14.5t-71 42t-47 67.5t-17 92q0 58 23 111t62.5 92.5t93.5 63t117 23.5q91 0 143.5 -50t52.5 -142q0 -18 -3 -37t-6 -34q-4 -18 -9 -35h-348
zM434 294v11q0 13 -5 27t-17 26t-31 19.5t-46 7.5q-45 0 -80.5 -27.5t-51.5 -63.5h231z" />
    <glyph glyph-name="f" unicode="f" horiz-adv-x="375" 
d="M-43 -85q8 -4 18 -7q19 -7 40 -7q19 0 34.5 17t21.5 49l71 407h-73l20 112h74l8 46q17 92 70 135t128 43q21 0 40 -2.5t34 -5.5q18 -4 33 -7l-52 -109l-21 6q-10 2 -22 4t-26 2q-23 0 -38 -15t-20 -47l-9 -50h113l-20 -112h-113l-72 -406q-16 -92 -67.5 -135t-121.5 -43
q-20 0 -36.5 2t-28.5 5q-14 4 -26 8z" />
    <glyph glyph-name="g" unicode="g" horiz-adv-x="590" 
d="M493 6q-9 -54 -34.5 -94t-62 -67t-82 -40.5t-96.5 -13.5q-40 0 -73.5 9.5t-57.5 20.5q-28 13 -51 31l69 97q17 -14 38 -25q18 -9 43 -16.5t56 -7.5q19 0 39.5 5.5t38 17.5t30 31t17.5 46l3 19q-14 -8 -32 -14q-15 -5 -36.5 -9.5t-46.5 -4.5q-44 0 -80 15t-61.5 42.5
t-39.5 67t-14 88.5q0 63 22.5 116t60 92t86 61t99.5 22q29 0 52.5 -6.5t39.5 -14.5q18 -10 32 -21l13 33h113zM428 347q-9 10 -23 19q-12 7 -30 13t-42 6q-30 0 -56.5 -13.5t-46.5 -37t-32 -55t-12 -67.5q0 -48 28 -79.5t76 -31.5q25 0 44 6.5t32 14t19.5 14l6.5 6.5z" />
    <glyph glyph-name="h" unicode="h" horiz-adv-x="615" 
d="M256 445q22 14 48 25q23 10 52 18t63 8q76 0 109.5 -39t33.5 -106q0 -31 -6 -65l-22 -118l-3.5 -18t-2.5 -18q0 -14 10.5 -23.5t36.5 -14.5l-57 -104q-23 0 -45 7.5t-38.5 20.5t-26.5 30.5t-10 37.5q0 8 1 17.5t2 13.5l28 159q2 11 3 22.5t1 18.5q0 32 -15 49.5t-44 17.5
q-24 0 -49 -10t-45 -21q-24 -13 -46 -30l-57 -323h-124l124 700h124z" />
    <glyph glyph-name="i" unicode="i" horiz-adv-x="285" 
d="M264 540q-42 4 -70.5 17.5t-45.5 28.5q-20 18 -32 38l46 102q11 -18 29 -32q15 -12 38.5 -22t56.5 -10zM247 486l-57 -318l-3.5 -18t-2.5 -18q0 -14 10.5 -23.5t36.5 -14.5l-57 -104q-23 0 -45 7.5t-38.5 20.5t-26.5 30.5t-10 37.5q0 8 1 17.5t2 13.5l64 369h126z" />
    <glyph glyph-name="j" unicode="j" horiz-adv-x="288" 
d="M-55 -85q8 -4 18 -7q19 -7 40 -7q19 0 34.5 17t21.5 49l91 519h125l-91 -518q-16 -92 -64 -135t-125 -43q-20 0 -36.5 2t-28.5 5q-14 4 -26 8zM293 540q-42 4 -70.5 17.5t-45.5 28.5q-20 18 -32 38l46 102q10 -18 28 -32q15 -12 38.5 -22t56.5 -10z" />
    <glyph glyph-name="k" unicode="k" horiz-adv-x="524" 
d="M503 0h-154l-105 208l-32 -12l-34 -196h-124l123 700h124l-67 -381q40 16 68 43l57 54t67 50t98 32l12 -114q-46 -11 -70.5 -24.5t-40.5 -29t-30 -32t-39 -32.5z" />
    <glyph glyph-name="l" unicode="l" horiz-adv-x="290" 
d="M285 700l-95 -532l-3.5 -18t-2.5 -18q0 -14 10.5 -23.5t36.5 -14.5l-57 -104q-23 0 -45 7.5t-38.5 20.5t-26.5 30.5t-10 37.5q0 8 1 17.5t2 13.5l102 583h126z" />
    <glyph glyph-name="m" unicode="m" horiz-adv-x="879" 
d="M400 495q29 0 49.5 -9t34.5 -20q16 -12 26 -28q25 16 53 28q24 11 54.5 20t63.5 9q75 0 110 -39.5t35 -108.5q0 -29 -6 -60l-22 -125q-2 -8 -3.5 -19t-1.5 -14q0 -13 10.5 -21.5t35.5 -13.5l-57 -104q-24 1 -46 8.5t-38.5 21t-26 31.5t-9.5 39q0 7 0.5 13.5t1.5 11.5
l31 176q3 15 3 28q0 32 -15.5 48.5t-44.5 16.5q-20 0 -39 -8t-34 -17q-18 -11 -33 -24q-1 -6 -2 -13q-1 -6 -2.5 -13t-2.5 -15l-52 -294h-125l51 291q3 15 3 29q0 64 -56 64q-19 0 -38 -8.5t-35 -19.5q-18 -12 -37 -27l-58 -329h-125l86 486h115l-3 -44q20 15 45 26
q20 10 47.5 18.5t56.5 8.5z" />
    <glyph glyph-name="n" unicode="n" horiz-adv-x="615" 
d="M251 441q24 15 51 27q23 11 53.5 19.5t65.5 8.5q75 0 108 -39t33 -106q0 -31 -6 -65l-22 -120q-2 -8 -4 -20.5t-2 -17.5q0 -11 10.5 -20t36.5 -14l-57 -104q-23 0 -45 7.5t-38.5 21t-26.5 31.5t-10 39q0 6 0.5 13t1.5 12l31 175q1 5 2 14t1 16q0 65 -60 65q-26 0 -51 -10
t-45 -21q-23 -13 -44 -30l-57 -323h-124l86 486h115z" />
    <glyph glyph-name="o" unicode="o" horiz-adv-x="596" 
d="M282 -10q-50 0 -91 16t-70 44.5t-44.5 67.5t-15.5 86q0 63 24 116.5t64.5 92.5t93.5 61t110 22q51 0 92.5 -16.5t70.5 -45t44.5 -67t15.5 -83.5q0 -67 -25 -121.5t-66 -92.5t-94 -59t-109 -21zM296 101q29 0 57 12t50 34.5t35.5 54.5t13.5 71q0 25 -8.5 46t-23.5 35.5
t-35.5 22.5t-44.5 8q-29 0 -56.5 -12t-49.5 -34.5t-35 -54t-13 -70.5q0 -51 31.5 -82t78.5 -31z" />
    <glyph glyph-name="p" unicode="p" horiz-adv-x="589" 
d="M200 133q8 -9 21 -16q11 -6 27.5 -11t39.5 -5q31 0 59.5 14t49.5 38t33.5 55.5t12.5 66.5q0 52 -29 81t-76 29q-23 0 -41 -7t-32 -15q-16 -10 -28 -22zM138 486h109v-37q17 12 38 23q18 9 43.5 16.5t57.5 7.5q37 0 70.5 -13.5t58.5 -40.5t39.5 -66.5t14.5 -91.5
q0 -63 -23.5 -117t-62.5 -93t-88.5 -61t-101.5 -22q-31 0 -52 4.5t-35 10.5q-16 7 -26 16l-39 -222h-124z" />
    <glyph glyph-name="q" unicode="q" horiz-adv-x="590" 
d="M372 18q-13 -8 -31 -13q-15 -5 -36.5 -9t-50.5 -4q-41 0 -76.5 14.5t-61.5 42t-40.5 67t-14.5 88.5q0 67 25.5 121.5t68 92t98.5 58t117 20.5q46 0 83.5 -8.5t63.5 -19.5q31 -12 54 -27l-113 -641h-125zM434 371l-19 7q-10 3 -24.5 5.5t-34.5 2.5q-33 0 -64 -12.5
t-54 -35.5t-37 -54.5t-14 -68.5q0 -49 29.5 -81t77.5 -32q22 0 40 4.5t31 10.5q15 7 27 16z" />
    <glyph glyph-name="r" unicode="r" horiz-adv-x="436" 
d="M433 352q-9 9 -20 16q-10 6 -24 11t-32 5q-31 0 -54.5 -12t-40 -30t-26.5 -40t-13 -42l-46 -260h-124l85 486h116l-4 -44q17 15 38 26q18 10 42.5 18.5t55.5 8.5q30 0 53 -8t38 -17q18 -11 30 -25z" />
    <glyph glyph-name="s" unicode="s" horiz-adv-x="485" 
d="M99 144q19 -12 39 -22q17 -8 39.5 -15t47.5 -7q43 0 68 16t25 39q0 16 -17 24.5t-42.5 15.5l-55 15t-55 22.5t-42.5 38.5t-17 63q0 34 17 63.5t46.5 51.5t69.5 34.5t86 12.5q44 0 76.5 -6.5t54.5 -14.5q26 -9 44 -20l-71 -97q-17 8 -36 14q-17 5 -37.5 10t-41.5 5
q-30 0 -54.5 -9.5t-24.5 -30.5q0 -13 17 -20t42.5 -14l55.5 -15.5t55.5 -24t42.5 -41t17 -65.5q0 -35 -15.5 -67t-45.5 -56t-74.5 -38.5t-103.5 -14.5q-41 0 -73.5 8t-55.5 19q-27 12 -49 28z" />
    <glyph glyph-name="t" unicode="t" horiz-adv-x="388" 
d="M385 374h-116l-37 -210q-3 -12 -3 -23q0 -17 9 -27.5t31 -10.5q11 0 23.5 1t24.5 3q13 2 28 5l-31 -114l-32 -4q-14 -2 -28 -2.5t-25 -0.5q-69 0 -99 31t-30 85q0 11 1.5 25t3.5 24l39 218h-70l19 112h70l14 76l135 57l-24 -133h116z" />
    <glyph glyph-name="u" unicode="u" horiz-adv-x="611" 
d="M260 486l-52 -295q-2 -9 -3 -18.5t-1 -16.5q0 -29 19.5 -41.5t53.5 -12.5q23 0 46 6.5t40 14.5q20 9 39 21l60 342h124l-60 -339q-1 -5 -1.5 -9.5t-0.5 -8.5q0 -13 10.5 -22t36.5 -12l-56 -105q-24 0 -42.5 7t-32.5 16q-16 10 -27 23q-25 -13 -52 -23q-23 -8 -53.5 -15
t-62.5 -7q-87 0 -127 39.5t-40 108.5q0 14 1 27.5t3 24.5l52 295h126z" />
    <glyph glyph-name="v" unicode="v" horiz-adv-x="583" 
d="M272 -10q-89 0 -140 46t-51 125q0 9 1 24t3 23l48 278h124l-46 -262q-1 -6 -3 -20.5t-2 -23.5q0 -37 22 -57.5t60 -20.5q18 0 41.5 8t44.5 31.5t35.5 64.5t14.5 107q0 32 -12 58.5t-46 43.5l88 91q56 -22 77.5 -69t21.5 -105q0 -85 -22.5 -149t-61 -107t-89.5 -64.5
t-108 -21.5z" />
    <glyph glyph-name="w" unicode="w" horiz-adv-x="870" 
d="M252 -9q-35 0 -66.5 10.5t-54.5 31.5t-36.5 52t-13.5 72q0 11 1.5 28.5t3.5 27.5l47 273h124l-47 -270q-2 -10 -4 -24t-2 -22q0 -34 20 -51t52 -17q18 0 36.5 7t34 20t26.5 32.5t16 45.5l49 279h124l-49 -279q-1 -6 -2 -14t-1 -19q0 -33 20.5 -52.5t55.5 -19.5t59 21
t39 52.5t21.5 68.5t6.5 68q0 32 -12 59t-45 44l85 91q28 -11 47 -29t30.5 -40.5t16.5 -49.5t5 -55q0 -86 -22 -149.5t-59 -106.5t-87 -64t-105 -21q-51 0 -88 18.5t-60 47.5q-74 -66 -166 -66z" />
    <glyph glyph-name="x" unicode="x" horiz-adv-x="585" 
d="M530 0h-158l-73 145l-48 -64q-32 -42 -65.5 -66t-81.5 -24q-20 0 -37.5 5t-31.5 12q-16 8 -29 18l69 98q7 -7 15 -11q7 -4 14 -7t14 -3q10 0 18 6.5t15 14.5l92 115l-139 247h156l71 -140l33 43q25 32 47 52.5t46 33t51 18t62 6.5l-2 -109q-17 -1 -31.5 -4t-29.5 -11.5
t-31 -22.5t-35 -37l-54 -66z" />
    <glyph glyph-name="y" unicode="y" horiz-adv-x="577" 
d="M226 0h-31l-52 304q-6 35 -18.5 59.5t-47.5 31.5l69 102q59 -5 85.5 -34t31.5 -69l39 -270l203 362h135l-302 -524q-30 -51 -55.5 -84.5t-52 -53t-56 -27t-65.5 -7.5q-15 0 -30 2.5t-28 5.5q-15 4 -28 8l44 110q8 -4 18 -8q17 -7 36 -7q11 0 22 2.5t22.5 10.5t23 22.5
t23.5 37.5z" />
    <glyph glyph-name="z" unicode="z" horiz-adv-x="526" 
d="M454 0h-426l19 108l303 270h-246l19 108h410l-19 -109l-300 -267h259z" />
    <glyph glyph-name="braceleft" unicode="{" horiz-adv-x="351" 
d="M60 300q27 6 46 14.5t32 22t20.5 33t12.5 46.5l20 112q17 94 78.5 138t154.5 44l-18 -99q-45 0 -71 -24.5t-36 -79.5l-16 -92q-12 -67 -38 -106.5t-58 -59.5q20 -14 31 -40t11 -67q0 -28 -6 -64l-14 -81q-4 -19 -4 -37q0 -71 74 -71l-18 -99q-81 0 -126.5 33.5
t-45.5 104.5q0 11 1 21.5t3 22.5l18 105q2 12 3 22.5t1 19.5q0 34 -16.5 53t-55.5 27z" />
    <glyph glyph-name="bar" unicode="|" horiz-adv-x="294" 
d="M137 -250h-114l177 1000h114z" />
    <glyph glyph-name="braceright" unicode="}" horiz-adv-x="351" 
d="M334 199q-27 -5 -46.5 -14.5t-32.5 -24.5t-21 -35.5t-12 -47.5l-18 -105q-8 -47 -28.5 -81t-51 -56.5t-69.5 -33.5t-84 -11l18 99q88 0 107 108l14 81q12 69 38 110.5t58 60.5q-20 14 -31 40t-11 66q0 25 6 60l16 92q3 19 3 35q0 36 -18.5 52.5t-55.5 16.5l18 99
q81 0 127 -34t46 -106q0 -22 -4 -42l-20 -112q-2 -12 -3 -22t-1 -19q0 -32 16.5 -49t56.5 -26z" />
    <glyph glyph-name="asciitilde" unicode="~" horiz-adv-x="627" 
d="M583 340q-19 -72 -59.5 -116.5t-100.5 -44.5q-26 0 -49 8.5t-44.5 18l-42.5 18t-43 8.5q-17 0 -26.5 -12t-19.5 -38h-109q9 34 24 63.5t35.5 51.5t46 34t54.5 12q26 0 48 -8.5t43 -18t42.5 -18t45.5 -8.5q16 0 25.5 11.5t19.5 38.5h110z" />
    <glyph glyph-name="exclamdown" unicode="&#xa1;" horiz-adv-x="310" 
d="M30 -214l106 502h114l-70 -502h-150zM138 352l23 134h134l-23 -134h-134z" />
    <glyph glyph-name="cent" unicode="&#xa2;" 
d="M236 -1q-75 19 -118 73t-43 132q0 56 19.5 104t53.5 85.5t79.5 62t97.5 34.5l17 85h120l-16 -85q36 -8 61 -23.5t41 -33.5t24.5 -36t10.5 -30l-119 -49q-8 26 -32 46.5t-63 20.5q-31 0 -60 -12.5t-52 -35.5t-37 -54.5t-14 -68.5q0 -51 32.5 -82t87.5 -31q29 0 57 7t50 16
q26 11 49 24l34 -101q-22 -11 -48 -22q-22 -9 -51 -17.5t-62 -13.5l-17 -86h-120z" />
    <glyph glyph-name="sterling" unicode="&#xa3;" 
d="M512 0h-457l21 116h56q16 26 29 56q11 26 20 60t9 74h-79l20 114h68q4 58 20 111t48.5 92.5t82.5 63t123 23.5q29 0 54.5 -4.5t44.5 -9.5q22 -6 39 -14l-53 -111q-16 6 -34 10q-15 4 -33.5 7.5t-37.5 3.5q-35 0 -58.5 -16t-37.5 -41t-21 -55.5t-10 -59.5h170l-20 -114
h-156q0 -41 -8 -75.5t-18 -60.5q-11 -30 -25 -54h264z" />
    <glyph glyph-name="currency" unicode="&#xa4;" 
d="M513 350q26 -47 26 -105q0 -56 -26 -105l64 -64l-89 -88l-63 64q-24 -15 -50.5 -21.5t-58.5 -6.5q-27 0 -54 7t-50 20l-63 -63l-88 88l63 63q-12 23 -19.5 50t-7.5 56q0 60 27 108l-61 60l88 88l61 -62q50 28 105 28q29 0 56.5 -7.5t50.5 -21.5l62 63l89 -89zM427 245
q0 22 -9 41.5t-24 33.5t-35 22.5t-42 8.5q-23 0 -42.5 -8.5t-34.5 -22.5t-23.5 -33.5t-8.5 -41.5t8.5 -41t23 -33.5t34.5 -23t43 -8.5t43 8.5t35 23t23.5 33.5t8.5 41z" />
    <glyph glyph-name="yen" unicode="&#xa5;" 
d="M624 700l-196 -326h89l-19 -105h-136l-10 -58h136l-19 -106h-136l-18 -105h-136l18 105h-136l19 106h136l10 58h-136l19 105h89l-107 326h142l87 -283l162 283h142z" />
    <glyph glyph-name="brokenbar" unicode="&#xa6;" horiz-adv-x="294" 
d="M245 362h-114l69 388h114zM137 -250h-114l69 387h114z" />
    <glyph glyph-name="section" unicode="&#xa7;" horiz-adv-x="578" 
d="M97 7q18 -10 40 -17q19 -6 45 -11t57 -5q51 0 82 15t31 47q0 21 -20 34.5t-50 25t-65 23.5t-65 30t-50 44.5t-20 66.5q0 48 22.5 84.5t70.5 68.5q-20 17 -30 43t-10 55q0 44 20 80.5t56 62.5t85 40.5t107 14.5q48 0 84.5 -7.5t60.5 -15.5q28 -10 48 -22l-66 -100
q-17 9 -38 17q-19 7 -45 12.5t-58 5.5q-53 0 -83.5 -17t-30.5 -45q0 -21 20 -34t50 -25t65 -24t65 -30t50 -44.5t20 -66.5q0 -44 -24.5 -84.5t-66.5 -70.5q19 -17 29 -42.5t10 -53.5q0 -45 -20 -81.5t-56 -62.5t-85.5 -40.5t-107.5 -14.5q-47 0 -82.5 6.5t-59.5 14.5
q-28 10 -49 22zM367 202q21 16 31.5 37.5t10.5 30.5q0 17 -15 32.5t-37.5 28.5t-48.5 23t-47 17q-16 -11 -29.5 -30.5t-13.5 -38.5q0 -32 38 -53t111 -47z" />
    <glyph glyph-name="dieresis" unicode="&#xa8;" horiz-adv-x="361" 
d="M191 545q-42 4 -68.5 15.5t-42.5 22.5q-18 13 -28 29l47 102q12 -12 30 -22q14 -8 35.5 -15.5t48.5 -9.5zM401 545q-42 4 -68.5 15.5t-42.5 22.5q-18 13 -27 29l47 102q13 -12 30 -22q14 -8 35 -15.5t48 -9.5z" />
    <glyph glyph-name="copyright" unicode="&#xa9;" horiz-adv-x="838" 
d="M531 421q-12 8 -26 15q-12 6 -28 11t-33 5q-37 0 -59.5 -28.5t-22.5 -70.5q0 -46 22.5 -76t62.5 -30q17 0 33.5 4t30.5 9q16 6 31 14l30 -83q-15 -9 -35 -16q-17 -6 -42.5 -11t-57.5 -5q-39 0 -71 14.5t-54.5 40.5t-34.5 62t-12 79q0 39 13 72.5t36 58.5t55.5 39.5
t70.5 14.5q27 0 50 -5.5t40 -12.5q19 -8 36 -18zM802 352q0 -78 -28.5 -144.5t-77 -114.5t-114 -75t-138.5 -27q-75 0 -140.5 27t-114.5 75t-77 114.5t-28 144.5q0 77 28 143t77 114t114.5 75t140.5 27q74 0 139.5 -27.5t114 -75.5t76.5 -113.5t28 -142.5zM174 351
q0 -56 21 -104.5t58 -85.5t85.5 -58t104.5 -21q55 0 104 21t86 58t58 85.5t21 104.5q0 55 -21 104t-58 86t-86 58t-104 21q-56 0 -104.5 -21t-85.5 -58t-58 -86t-21 -104z" />
    <glyph glyph-name="ordfeminine" unicode="&#xaa;" horiz-adv-x="477" 
d="M403 350q-16 2 -28 7t-21 11q-11 7 -19 16q-16 -9 -35 -16q-17 -6 -38.5 -10.5t-46.5 -4.5q-50 0 -83 21t-33 67q0 68 61 105t173 37v9q0 21 -13.5 29t-36.5 8q-19 0 -36 -4t-31 -9q-16 -5 -30 -12l-24 71q19 9 42 17q20 7 44.5 12.5t53.5 5.5q65 0 102 -27t37 -79
q0 -6 -0.5 -13.5t-1.5 -12.5l-20 -112q-1 -3 -1 -9q0 -8 6 -15t28 -11zM324 515q-55 0 -87.5 -14t-32.5 -40q0 -23 41 -23q14 0 34.5 5t34.5 14zM88 304h316l-15 -88h-316z" />
    <glyph glyph-name="guillemotleft" unicode="&#xab;" horiz-adv-x="652" 
d="M587 49h-131l-117 219l194 218h131l-181 -218zM340 49h-131l-116 219l193 218h131l-180 -218z" />
    <glyph glyph-name="logicalnot" unicode="&#xac;" horiz-adv-x="625" 
d="M541 100h-122l28 160h-343l22 121h465z" />
    <glyph glyph-name="registered" unicode="&#xae;" horiz-adv-x="495" 
d="M355 420h-55l-28 68h-12v-68h-51v185h69q76 0 76 -60q0 -38 -35 -51zM303 546q0 19 -29 19h-14v-41h13q12 0 21 4.5t9 17.5zM474 512q0 -42 -15.5 -78.5t-42.5 -63t-63 -41.5t-76 -15q-41 0 -77 15t-63 41.5t-42.5 63t-15.5 78.5t15.5 78t42.5 63t63 42t77 15
q40 0 76 -15t63 -42t42.5 -63t15.5 -78zM131 512q0 -30 11.5 -57t31 -46.5t46.5 -31t57 -11.5t57 11.5t46.5 31t31 46.5t11.5 57t-11.5 57t-31 46.5t-46.5 31t-57 11.5t-57 -11.5t-46.5 -31t-31 -46.5t-11.5 -57z" />
    <glyph glyph-name="macron" unicode="&#xaf;" horiz-adv-x="265" 
d="M45 567l18 101h265l-18 -101h-265z" />
    <glyph glyph-name="degree" unicode="&#xb0;" horiz-adv-x="438" 
d="M103 551q0 33 12.5 62t34 50.5t50.5 34t62 12.5t62 -12.5t50.5 -34t34 -50.5t12.5 -62t-12.5 -62t-34 -50.5t-50.5 -34t-62 -12.5t-62 12.5t-50.5 34t-34 50.5t-12.5 62zM191 551q0 -30 20.5 -50.5t50.5 -20.5t50.5 20.5t20.5 50.5t-20.5 50.5t-50.5 20.5t-50.5 -20.5
t-20.5 -50.5z" />
    <glyph glyph-name="plusminus" unicode="&#xb1;" horiz-adv-x="626" 
d="M573 288h-172l-22 -124h-123l22 124h-171l21 117h171l22 124h123l-22 -124h172zM522 0h-466l21 118h466z" />
    <glyph glyph-name="uni00B2" unicode="&#xb2;" horiz-adv-x="377" 
d="M355 425h-288l16 89l143 123q38 32 55.5 53t18.5 41q0 28 -37 28q-14 0 -30.5 -6t-32.5 -13l-37 -19l-32 85q22 15 48 26q22 10 49.5 18t56.5 8q57 0 90 -27t33 -80q0 -38 -21 -76t-72 -81l-82 -70h140z" />
    <glyph glyph-name="uni00B3" unicode="&#xb3;" horiz-adv-x="379" 
d="M114 543q15 -9 32 -16q14 -6 31 -10.5t33 -4.5q26 0 46 13.5t20 38.5q0 34 -54 34h-48l15 87h55q25 0 38 13.5t13 24.5q0 15 -8.5 24t-26.5 9q-13 0 -29 -3.5t-30 -8.5q-17 -5 -35 -11l-29 79q22 10 46 19q20 8 46 14t52 6q56 0 89.5 -26t33.5 -74q0 -24 -9 -42.5
t-19.5 -30.5t-20 -18.5l-9.5 -6.5q10 -5 18 -16q7 -9 12.5 -24t5.5 -37q0 -38 -14.5 -68t-39.5 -51t-57 -32t-67 -11q-33 0 -59 6t-44 14q-21 9 -37 21z" />
    <glyph glyph-name="acute" unicode="&#xb4;" horiz-adv-x="248" 
d="M49 601l196 147l62 -87q-29 -27 -65 -51q-31 -20 -74 -40t-94 -30z" />
    <glyph glyph-name="mu" unicode="&#xb5;" horiz-adv-x="614" 
d="M148 486h126l-51 -285q-1 -6 -1.5 -13.5t-0.5 -16.5q0 -29 19.5 -50.5t59.5 -21.5q28 0 50.5 10.5t38 26.5t25.5 36t13 39l49 275h124l-59 -331l-2.5 -13t-1.5 -14q0 -11 10.5 -20.5t34.5 -14.5l-57 -104q-29 2 -58 16.5t-43 39.5q-15 -14 -33 -24t-36.5 -16.5t-35.5 -10
t-30 -3.5q-29 0 -47 6t-29 14q-13 9 -20 20l-40 -231h-126z" />
    <glyph glyph-name="paragraph" unicode="&#xb6;" horiz-adv-x="621" 
d="M250 -19q9 -3 19 -6q18 -5 38 -5t34 17t20 50l32 179h-89q-42 0 -77.5 15t-61 42t-40 63t-14.5 78q0 64 24 116.5t63 90.5t89 59t103 21h269l-18 -105h-55l-99 -559q-17 -92 -71 -135t-124 -43q-15 0 -29.5 2t-26.5 4l-27 6z" />
    <glyph glyph-name="periodcentered" unicode="&#xb7;" horiz-adv-x="305" 
d="M237 210h-145l25 145h145z" />
    <glyph glyph-name="cedilla" unicode="&#xb8;" horiz-adv-x="224" 
d="M15 -158q6 -4 14 -7q7 -2 16 -4t21 -2q11 0 23.5 10t12.5 23q0 11 -6 19t-17 8q-8 0 -13.5 -1t-10.5 -3l-9 -3l-23 47l53 71h102l-33 -46q31 -5 48.5 -27t17.5 -52t-13.5 -54t-34.5 -40t-47 -24.5t-51 -8.5q-20 0 -37 3.5t-30 8.5q-15 5 -27 12z" />
    <glyph glyph-name="uni00B9" unicode="&#xb9;" horiz-adv-x="260" 
d="M219 425h-105l53 303l-50 -20l-23 87l108 47h90z" />
    <glyph glyph-name="ordmasculine" unicode="&#xba;" horiz-adv-x="487" 
d="M268 348q-37 0 -66.5 11.5t-50 31.5t-31.5 47t-11 57q0 48 15.5 87.5t43.5 68t67.5 44t86.5 15.5q37 0 66.5 -11t50.5 -30.5t32 -45.5t11 -57q0 -46 -15 -86t-43 -69t-67.5 -46t-88.5 -17zM278 432q40 0 68.5 34t28.5 91q0 32 -16 50t-47 18q-19 0 -36.5 -8.5t-31 -24.5
t-21.5 -39t-8 -51q0 -33 17 -51.5t46 -18.5zM95 304h320l-15 -88h-320z" />
    <glyph glyph-name="guillemotright" unicode="&#xbb;" horiz-adv-x="652" 
d="M215 268l-103 218h131l116 -218l-193 -219h-131zM461 268l-102 218h131l115 -218l-192 -219h-131z" />
    <glyph glyph-name="onequarter" unicode="&#xbc;" horiz-adv-x="845" 
d="M745 710l-550 -720h-107l549 720h108zM249 283h-105l53 303l-51 -20l-22 87l108 47h90zM795 175l-17 -95h-40l-14 -80h-103l14 80h-195l14 83l131 201q4 6 10 18l12 23t9.5 19.5l3.5 8.5l94 -22l-15 -35l-14 -28.5t-12 -22.5l-99 -150h78l13 74h103l-13 -74h40z" />
    <glyph glyph-name="onehalf" unicode="&#xbd;" horiz-adv-x="861" 
d="M745 710l-550 -720h-107l549 720h108zM249 283h-105l53 303l-51 -20l-22 87l108 47h90zM779 0h-288l16 89l143 123q38 32 55.5 53t18.5 41q0 28 -37 28q-14 0 -30.5 -6t-32.5 -13l-37 -19l-32 85q22 15 48 26q22 10 49.5 18t56.5 8q57 0 90 -27t33 -80q0 -38 -21 -76
t-72 -81l-82 -70h140z" />
    <glyph glyph-name="threequarters" unicode="&#xbe;" horiz-adv-x="929" 
d="M829 710l-550 -720h-107l549 720h108zM879 175l-17 -95h-40l-14 -80h-103l14 80h-195l14 83l131 201q4 6 10 18l12 23t9.5 19.5l3.5 8.5l94 -22l-15 -35l-14 -28.5t-12 -22.5l-99 -150h78l13 74h103l-13 -74h40zM124 402q15 -9 32 -16q14 -6 31 -10.5t33 -4.5
q26 0 46 13.5t20 38.5q0 34 -54 34h-48l15 87h55q25 0 38 13.5t13 24.5q0 15 -8.5 24t-26.5 9q-13 0 -29 -3.5t-30 -8.5q-17 -5 -35 -11l-29 79q22 10 46 19q20 8 46 14t52 6q56 0 89.5 -26t33.5 -74q0 -24 -9 -42.5t-19.5 -30.5t-20 -18.5l-9.5 -6.5q10 -5 18 -16
q7 -9 12.5 -24t5.5 -37q0 -38 -14.5 -68t-39.5 -51t-57 -32t-67 -11q-33 0 -59 6t-44 14q-21 9 -37 21z" />
    <glyph glyph-name="questiondown" unicode="&#xbf;" horiz-adv-x="490" 
d="M25 -60q0 41 14 74t36 60t48 50t49 45.5t41 45t23 48.5l5 25h124l-5 -29q-7 -39 -23.5 -68.5t-37.5 -53t-44 -43.5t-42 -39.5t-31 -41t-12 -48.5q0 -31 22.5 -48t62.5 -17q22 0 44.5 5.5t41.5 13.5q22 8 42 19l34 -114q-48 -23 -98.5 -35.5t-97.5 -12.5q-44 0 -80 12
t-61.5 33.5t-40 51.5t-14.5 67zM247 352l24 134h134l-24 -134h-134z" />
    <glyph glyph-name="Agrave" unicode="&#xc0;" horiz-adv-x="705" 
d="M432 472l-10 102l-46 -102l-98 -186h186zM220 172l-90 -172h-140l383 700h143l138 -700h-141l-30 172h-263zM543 754q-48 10 -83.5 30t-59.5 40q-28 24 -48 51l94 87l144 -147z" />
    <glyph glyph-name="Aacute" unicode="&#xc1;" horiz-adv-x="705" 
d="M432 472l-10 102l-46 -102l-98 -186h186zM220 172l-90 -172h-140l383 700h143l138 -700h-141l-30 172h-263zM343 815l196 147l62 -87q-29 -27 -65 -51q-31 -20 -74 -40t-94 -30z" />
    <glyph glyph-name="Acircumflex" unicode="&#xc2;" horiz-adv-x="705" 
d="M432 472l-10 102l-46 -102l-98 -186h186zM220 172l-90 -172h-140l383 700h143l138 -700h-141l-30 172h-263zM308 824l136 110h90l98 -110l-46 -58q-22 6 -42 18t-36 24q-18 14 -35 31q-21 -17 -45 -31q-20 -12 -45 -24.5t-49 -18.5z" />
    <glyph glyph-name="Atilde" unicode="&#xc3;" horiz-adv-x="705" 
d="M432 472l-10 102l-46 -102l-98 -186h186zM220 172l-90 -172h-140l383 700h143l138 -700h-141l-30 172h-263zM643 879q-4 -20 -16.5 -39t-30 -35t-38 -25.5t-41.5 -9.5q-18 0 -32.5 6.5t-26.5 14l-23 14t-21 6.5q-13 0 -26.5 -12t-24.5 -33l-68 34q3 21 15.5 40.5
t30.5 34.5t39.5 24.5t42.5 9.5q17 0 30.5 -6.5t25.5 -14l22.5 -14t21.5 -6.5q14 0 28 12t24 33z" />
    <glyph glyph-name="Adieresis" unicode="&#xc4;" horiz-adv-x="705" 
d="M432 472l-10 102l-46 -102l-98 -186h186zM220 172l-90 -172h-140l383 700h143l138 -700h-141l-30 172h-263zM421 759q-42 4 -68.5 15.5t-42.5 22.5q-18 13 -28 29l47 102q12 -12 30 -22q14 -8 35.5 -15.5t48.5 -9.5zM631 759q-42 4 -68.5 15.5t-42.5 22.5q-18 13 -27 29
l47 102q13 -12 30 -22q14 -8 35 -15.5t48 -9.5z" />
    <glyph glyph-name="Aring" unicode="&#xc5;" horiz-adv-x="705" 
d="M432 472l-10 102l-46 -102l-98 -186h186zM220 172l-90 -172h-140l383 700h143l138 -700h-141l-30 172h-263zM456 748q-46 0 -74.5 26t-28.5 67q0 27 11 49.5t29.5 38.5t43 24.5t51.5 8.5q45 0 74 -28t29 -67q0 -26 -11 -48t-29.5 -38t-43 -24.5t-51.5 -8.5zM464 812
q21 0 35.5 14.5t14.5 34.5q0 15 -10 25.5t-25 10.5q-20 0 -35.5 -13t-15.5 -36q0 -14 10.5 -25t25.5 -11z" />
    <glyph glyph-name="AE" unicode="&#xc6;" horiz-adv-x="940" 
d="M869 0h-428l34 194h-224l-136 -194h-145l490 700h525l-21 -119h-289l-28 -160h279l-21 -118h-279l-32 -184h296zM496 314l47 265h-22l-186 -265h161z" />
    <glyph glyph-name="Ccedilla" unicode="&#xc7;" horiz-adv-x="723" 
d="M257 -158q6 -4 14 -7q7 -2 16 -4t21 -2q11 0 23.5 10t12.5 23q0 11 -6 19t-17 8q-8 0 -13.5 -1t-10.5 -3l-9 -3l-23 47l49 66q-54 9 -98.5 33t-76 61.5t-49 87.5t-17.5 110q0 89 31 166t86 134t131 90t165 33q70 0 118.5 -19.5t79.5 -45.5t46 -53.5t18 -42.5l-126 -57
q-3 10 -12.5 27.5t-27 33.5t-44 28t-63.5 12q-52 0 -99.5 -22t-83.5 -62t-57 -94.5t-21 -120.5q0 -85 47.5 -136t133.5 -51q42 0 83.5 12t74.5 26q39 17 74 39l38 -112q-35 -19 -75 -36q-35 -14 -80 -27t-96 -17l-27 -38q31 -5 48.5 -27t17.5 -52t-13.5 -54t-34.5 -40
t-47 -24.5t-51 -8.5q-20 0 -37 3.5t-30 8.5q-15 5 -27 12z" />
    <glyph glyph-name="Egrave" unicode="&#xc8;" horiz-adv-x="588" 
d="M507 0h-458l123 700h450l-21 -119h-316l-29 -164h307l-21 -119h-307l-31 -179h324zM520 754q-48 10 -83.5 30t-59.5 40q-28 24 -48 51l94 87l144 -147z" />
    <glyph glyph-name="Eacute" unicode="&#xc9;" horiz-adv-x="588" 
d="M507 0h-458l123 700h450l-21 -119h-316l-29 -164h307l-21 -119h-307l-31 -179h324zM316 815l196 147l62 -87q-29 -27 -65 -51q-31 -20 -74 -40t-94 -30z" />
    <glyph glyph-name="Ecircumflex" unicode="&#xca;" horiz-adv-x="588" 
d="M507 0h-458l123 700h450l-21 -119h-316l-29 -164h307l-21 -119h-307l-31 -179h324zM283 824l136 110h90l98 -110l-46 -58q-22 6 -42 18t-36 24q-18 14 -35 31q-21 -17 -45 -31q-20 -12 -45 -24.5t-49 -18.5z" />
    <glyph glyph-name="Edieresis" unicode="&#xcb;" horiz-adv-x="588" 
d="M507 0h-458l123 700h450l-21 -119h-316l-29 -164h307l-21 -119h-307l-31 -179h324zM397 759q-42 4 -68.5 15.5t-42.5 22.5q-18 13 -28 29l47 102q12 -12 30 -22q14 -8 35.5 -15.5t48.5 -9.5zM607 759q-42 4 -68.5 15.5t-42.5 22.5q-18 13 -27 29l47 102q13 -12 30 -22
q14 -8 35 -15.5t48 -9.5z" />
    <glyph glyph-name="Igrave" unicode="&#xcc;" horiz-adv-x="296" 
d="M185 0h-136l123 700h136zM338 754q-48 10 -83.5 30t-59.5 40q-28 24 -48 51l94 87l144 -147z" />
    <glyph glyph-name="Iacute" unicode="&#xcd;" horiz-adv-x="296" 
d="M185 0h-136l123 700h136zM136 815l196 147l62 -87q-29 -27 -65 -51q-31 -20 -74 -40t-94 -30z" />
    <glyph glyph-name="Icircumflex" unicode="&#xce;" horiz-adv-x="296" 
d="M185 0h-136l123 700h136zM103 824l136 110h90l98 -110l-46 -58q-22 6 -42 18t-36 24q-18 14 -35 31q-21 -17 -45 -31q-20 -12 -45 -24.5t-49 -18.5z" />
    <glyph glyph-name="Idieresis" unicode="&#xcf;" horiz-adv-x="296" 
d="M185 0h-136l123 700h136zM218 759q-42 4 -68.5 15.5t-42.5 22.5q-18 13 -28 29l47 102q12 -12 30 -22q14 -8 35.5 -15.5t48.5 -9.5zM428 759q-42 4 -68.5 15.5t-42.5 22.5q-18 13 -27 29l47 102q13 -12 30 -22q14 -8 35 -15.5t48 -9.5z" />
    <glyph glyph-name="Eth" unicode="&#xd0;" horiz-adv-x="740" 
d="M57 406h71l52 294h240q70 0 127 -19.5t97.5 -56.5t62 -91.5t21.5 -123.5q0 -86 -28 -160.5t-82.5 -130t-134 -87t-181.5 -31.5h-245l52 298h-72zM316 118q65 0 115.5 21.5t85.5 59.5t53.5 91t18.5 116q0 81 -49 128t-131 47h-116l-31 -175h133l-20 -108h-132l-32 -180
h105z" />
    <glyph glyph-name="Ntilde" unicode="&#xd1;" horiz-adv-x="723" 
d="M612 0h-152l-167 421l-29 114l-9 -134l-70 -401h-136l123 700h151l168 -421l28 -111l9 129l71 403h136zM653 879q-4 -20 -16.5 -39t-30 -35t-38 -25.5t-41.5 -9.5q-18 0 -32.5 6.5t-26.5 14l-23 14t-21 6.5q-13 0 -26.5 -12t-24.5 -33l-68 34q3 21 15.5 40.5t30.5 34.5
t39.5 24.5t42.5 9.5q17 0 30.5 -6.5t25.5 -14l22.5 -14t21.5 -6.5q14 0 28 12t24 33z" />
    <glyph glyph-name="Ograve" unicode="&#xd2;" horiz-adv-x="806" 
d="M378 -10q-69 0 -125.5 22t-96 61.5t-61.5 93.5t-22 118q0 94 32 172t87.5 134t131.5 87.5t165 31.5q69 0 125 -22t95.5 -61t61.5 -93t22 -118q0 -94 -31.5 -172t-87 -134.5t-131.5 -88t-165 -31.5zM394 109q53 0 100 22t82 62t55.5 94.5t20.5 120.5q0 84 -48 133.5
t-131 49.5q-53 0 -100 -22t-82 -61.5t-56 -94t-21 -119.5q0 -85 48 -135t132 -50zM587 754q-48 10 -83.5 30t-59.5 40q-28 24 -48 51l94 87l144 -147z" />
    <glyph glyph-name="Oacute" unicode="&#xd3;" horiz-adv-x="806" 
d="M378 -10q-69 0 -125.5 22t-96 61.5t-61.5 93.5t-22 118q0 94 32 172t87.5 134t131.5 87.5t165 31.5q69 0 125 -22t95.5 -61t61.5 -93t22 -118q0 -94 -31.5 -172t-87 -134.5t-131.5 -88t-165 -31.5zM394 109q53 0 100 22t82 62t55.5 94.5t20.5 120.5q0 84 -48 133.5
t-131 49.5q-53 0 -100 -22t-82 -61.5t-56 -94t-21 -119.5q0 -85 48 -135t132 -50zM386 815l196 147l62 -87q-29 -27 -65 -51q-31 -20 -74 -40t-94 -30z" />
    <glyph glyph-name="Ocircumflex" unicode="&#xd4;" horiz-adv-x="806" 
d="M378 -10q-69 0 -125.5 22t-96 61.5t-61.5 93.5t-22 118q0 94 32 172t87.5 134t131.5 87.5t165 31.5q69 0 125 -22t95.5 -61t61.5 -93t22 -118q0 -94 -31.5 -172t-87 -134.5t-131.5 -88t-165 -31.5zM394 109q53 0 100 22t82 62t55.5 94.5t20.5 120.5q0 84 -48 133.5
t-131 49.5q-53 0 -100 -22t-82 -61.5t-56 -94t-21 -119.5q0 -85 48 -135t132 -50zM352 824l136 110h90l98 -110l-46 -58q-22 6 -42 18t-36 24q-18 14 -35 31q-21 -17 -45 -31q-20 -12 -45 -24.5t-49 -18.5z" />
    <glyph glyph-name="Otilde" unicode="&#xd5;" horiz-adv-x="806" 
d="M378 -10q-69 0 -125.5 22t-96 61.5t-61.5 93.5t-22 118q0 94 32 172t87.5 134t131.5 87.5t165 31.5q69 0 125 -22t95.5 -61t61.5 -93t22 -118q0 -94 -31.5 -172t-87 -134.5t-131.5 -88t-165 -31.5zM394 109q53 0 100 22t82 62t55.5 94.5t20.5 120.5q0 84 -48 133.5
t-131 49.5q-53 0 -100 -22t-82 -61.5t-56 -94t-21 -119.5q0 -85 48 -135t132 -50zM688 879q-4 -20 -16.5 -39t-30 -35t-38 -25.5t-41.5 -9.5q-18 0 -32.5 6.5t-26.5 14l-23 14t-21 6.5q-13 0 -26.5 -12t-24.5 -33l-68 34q3 21 15.5 40.5t30.5 34.5t39.5 24.5t42.5 9.5
q17 0 30.5 -6.5t25.5 -14l22.5 -14t21.5 -6.5q14 0 28 12t24 33z" />
    <glyph glyph-name="Odieresis" unicode="&#xd6;" horiz-adv-x="806" 
d="M378 -10q-69 0 -125.5 22t-96 61.5t-61.5 93.5t-22 118q0 94 32 172t87.5 134t131.5 87.5t165 31.5q69 0 125 -22t95.5 -61t61.5 -93t22 -118q0 -94 -31.5 -172t-87 -134.5t-131.5 -88t-165 -31.5zM394 109q53 0 100 22t82 62t55.5 94.5t20.5 120.5q0 84 -48 133.5
t-131 49.5q-53 0 -100 -22t-82 -61.5t-56 -94t-21 -119.5q0 -85 48 -135t132 -50zM466 759q-42 4 -68.5 15.5t-42.5 22.5q-18 13 -28 29l47 102q12 -12 30 -22q14 -8 35.5 -15.5t48.5 -9.5zM676 759q-42 4 -68.5 15.5t-42.5 22.5q-18 13 -27 29l47 102q13 -12 30 -22
q14 -8 35 -15.5t48 -9.5z" />
    <glyph glyph-name="multiply" unicode="&#xd7;" horiz-adv-x="626" 
d="M543 117l-102 -87l-121 147l-171 -147l-72 87l173 147l-122 145l103 87l119 -147l173 147l71 -87l-172 -145z" />
    <glyph glyph-name="Oslash" unicode="&#xd8;" horiz-adv-x="806" 
d="M127 107q-26 37 -40 82t-14 96q0 94 32 172t87.5 134t131.5 87.5t165 31.5q54 0 100.5 -14t84.5 -40l68 69l66 -66l-68 -69q26 -36 39.5 -79.5t13.5 -94.5q0 -94 -31.5 -172t-87 -134.5t-131.5 -88t-165 -31.5q-54 0 -100.5 13.5t-83.5 38.5l-69 -69l-66 66zM214 294
q0 -48 15 -84l350 351q-44 30 -106 30q-53 0 -100 -22t-82 -61.5t-56 -94t-21 -119.5zM394 109q53 0 100 22t82 62t55.5 94.5t20.5 120.5q0 43 -14 80l-349 -351q44 -28 105 -28z" />
    <glyph glyph-name="Ugrave" unicode="&#xd9;" horiz-adv-x="725" 
d="M229 279q-2 -10 -3 -23t-1 -27q0 -59 36 -89.5t89 -30.5q31 0 60 10t53.5 31t42.5 53t26 76l75 421h136l-78 -442q-11 -61 -38.5 -110.5t-69.5 -84.5t-98 -54t-123 -19q-56 0 -102 16.5t-78.5 46t-50.5 70t-18 89.5q0 6 0.5 14.5t1.5 18t2.5 19l2.5 15.5l74 421h136z
M553 754q-48 10 -83.5 30t-59.5 40q-28 24 -48 51l94 87l144 -147z" />
    <glyph glyph-name="Uacute" unicode="&#xda;" horiz-adv-x="725" 
d="M229 279q-2 -10 -3 -23t-1 -27q0 -59 36 -89.5t89 -30.5q31 0 60 10t53.5 31t42.5 53t26 76l75 421h136l-78 -442q-11 -61 -38.5 -110.5t-69.5 -84.5t-98 -54t-123 -19q-56 0 -102 16.5t-78.5 46t-50.5 70t-18 89.5q0 6 0.5 14.5t1.5 18t2.5 19l2.5 15.5l74 421h136z
M350 815l196 147l62 -87q-29 -27 -65 -51q-31 -20 -74 -40t-94 -30z" />
    <glyph glyph-name="Ucircumflex" unicode="&#xdb;" horiz-adv-x="725" 
d="M229 279q-2 -10 -3 -23t-1 -27q0 -59 36 -89.5t89 -30.5q31 0 60 10t53.5 31t42.5 53t26 76l75 421h136l-78 -442q-11 -61 -38.5 -110.5t-69.5 -84.5t-98 -54t-123 -19q-56 0 -102 16.5t-78.5 46t-50.5 70t-18 89.5q0 6 0.5 14.5t1.5 18t2.5 19l2.5 15.5l74 421h136z
M316 824l136 110h90l98 -110l-46 -58q-22 6 -42 18t-36 24q-18 14 -35 31q-21 -17 -45 -31q-20 -12 -45 -24.5t-49 -18.5z" />
    <glyph glyph-name="Udieresis" unicode="&#xdc;" horiz-adv-x="725" 
d="M229 279q-2 -10 -3 -23t-1 -27q0 -59 36 -89.5t89 -30.5q31 0 60 10t53.5 31t42.5 53t26 76l75 421h136l-78 -442q-11 -61 -38.5 -110.5t-69.5 -84.5t-98 -54t-123 -19q-56 0 -102 16.5t-78.5 46t-50.5 70t-18 89.5q0 6 0.5 14.5t1.5 18t2.5 19l2.5 15.5l74 421h136z
M434 759q-42 4 -68.5 15.5t-42.5 22.5q-18 13 -28 29l47 102q12 -12 30 -22q14 -8 35.5 -15.5t48.5 -9.5zM644 759q-42 4 -68.5 15.5t-42.5 22.5q-18 13 -27 29l47 102q13 -12 30 -22q14 -8 35 -15.5t48 -9.5z" />
    <glyph glyph-name="Yacute" unicode="&#xdd;" horiz-adv-x="630" 
d="M712 700l-310 -415l-50 -285h-136l51 290l-165 410h152l100 -292h4l199 292h155zM305 815l196 147l62 -87q-29 -27 -65 -51q-31 -20 -74 -40t-94 -30z" />
    <glyph glyph-name="Thorn" unicode="&#xde;" horiz-adv-x="596" 
d="M172 700h133l-15 -84h94q113 0 168 -50t55 -144q0 -58 -19.5 -108.5t-58 -88t-95.5 -59t-132 -21.5h-94l-25 -145h-134zM323 264q37 0 65 12t46 31.5t27 44.5t9 51q0 18 -6 35.5t-18.5 30.5t-33 21t-48.5 8h-94l-41 -234h94z" />
    <glyph glyph-name="germandbls" unicode="&#xdf;" horiz-adv-x="650" 
d="M297 130q13 -8 27 -14q12 -5 27.5 -9t31.5 -4q18 0 34.5 4t29.5 12t21 21t8 30q0 22 -22 39.5l-49 37.5t-49 46.5t-22 67.5q0 42 19 68.5t41.5 45.5l41.5 35t19 37t-16.5 35.5t-48.5 14.5q-37 0 -64 -25.5t-34 -63.5l-89 -508h-124l66 374h-75l19 112h75l5 29q8 46 31 82
t55 61t71.5 38.5t80.5 13.5q45 0 78.5 -11.5t56 -31t34 -45.5t11.5 -55q0 -43 -17.5 -69.5t-39 -44.5l-39 -32.5t-17.5 -33.5q0 -11 10 -21t25 -21l33 -24.5t33 -32t25 -43t10 -57.5q0 -42 -17.5 -78.5t-48 -62.5t-73 -41t-92.5 -15q-33 0 -57 5t-41 12q-19 8 -33 18z" />
    <glyph glyph-name="agrave" unicode="&#xe0;" horiz-adv-x="597" 
d="M429 346q-9 11 -22 20q-11 8 -29.5 14t-44.5 6q-29 0 -56 -13.5t-47 -37t-32 -55t-12 -67.5q0 -53 30 -82.5t75 -29.5q23 0 42 5.5t32 13.5q15 9 27 20zM520 164q-2 -8 -3.5 -17.5t-1.5 -15.5q0 -13 11.5 -23t37.5 -13l-58 -105q-26 0 -44.5 7.5t-31.5 16.5
q-15 11 -25 23q-18 -13 -40 -24q-19 -9 -46 -16t-59 -7q-41 0 -77.5 13.5t-63.5 40.5t-43 66.5t-16 92.5q0 63 23 116.5t60.5 92.5t86 61t99.5 22q32 0 56 -7.5t39 -15.5q18 -10 29 -22l14 36h110zM438 540q-48 10 -83.5 30t-59.5 40q-28 24 -48 51l94 87l144 -147z" />
    <glyph glyph-name="aacute" unicode="&#xe1;" horiz-adv-x="597" 
d="M429 346q-9 11 -22 20q-11 8 -29.5 14t-44.5 6q-29 0 -56 -13.5t-47 -37t-32 -55t-12 -67.5q0 -53 30 -82.5t75 -29.5q23 0 42 5.5t32 13.5q15 9 27 20zM520 164q-2 -8 -3.5 -17.5t-1.5 -15.5q0 -13 11.5 -23t37.5 -13l-58 -105q-26 0 -44.5 7.5t-31.5 16.5
q-15 11 -25 23q-18 -13 -40 -24q-19 -9 -46 -16t-59 -7q-41 0 -77.5 13.5t-63.5 40.5t-43 66.5t-16 92.5q0 63 23 116.5t60.5 92.5t86 61t99.5 22q32 0 56 -7.5t39 -15.5q18 -10 29 -22l14 36h110zM241 601l196 147l62 -87q-29 -27 -65 -51q-31 -20 -74 -40t-94 -30z" />
    <glyph glyph-name="acircumflex" unicode="&#xe2;" horiz-adv-x="597" 
d="M429 346q-9 11 -22 20q-11 8 -29.5 14t-44.5 6q-29 0 -56 -13.5t-47 -37t-32 -55t-12 -67.5q0 -53 30 -82.5t75 -29.5q23 0 42 5.5t32 13.5q15 9 27 20zM520 164q-2 -8 -3.5 -17.5t-1.5 -15.5q0 -13 11.5 -23t37.5 -13l-58 -105q-26 0 -44.5 7.5t-31.5 16.5
q-15 11 -25 23q-18 -13 -40 -24q-19 -9 -46 -16t-59 -7q-41 0 -77.5 13.5t-63.5 40.5t-43 66.5t-16 92.5q0 63 23 116.5t60.5 92.5t86 61t99.5 22q32 0 56 -7.5t39 -15.5q18 -10 29 -22l14 36h110zM202 610l136 110h90l98 -110l-46 -58q-22 6 -42 18t-36 24q-18 14 -35 31
q-21 -17 -45 -31q-20 -12 -45 -24.5t-49 -18.5z" />
    <glyph glyph-name="atilde" unicode="&#xe3;" horiz-adv-x="597" 
d="M429 346q-9 11 -22 20q-11 8 -29.5 14t-44.5 6q-29 0 -56 -13.5t-47 -37t-32 -55t-12 -67.5q0 -53 30 -82.5t75 -29.5q23 0 42 5.5t32 13.5q15 9 27 20zM520 164q-2 -8 -3.5 -17.5t-1.5 -15.5q0 -13 11.5 -23t37.5 -13l-58 -105q-26 0 -44.5 7.5t-31.5 16.5
q-15 11 -25 23q-18 -13 -40 -24q-19 -9 -46 -16t-59 -7q-41 0 -77.5 13.5t-63.5 40.5t-43 66.5t-16 92.5q0 63 23 116.5t60.5 92.5t86 61t99.5 22q32 0 56 -7.5t39 -15.5q18 -10 29 -22l14 36h110zM538 665q-4 -20 -16.5 -39t-30 -35t-38 -25.5t-41.5 -9.5q-18 0 -32.5 6.5
t-26.5 14l-23 14t-21 6.5q-13 0 -26.5 -12t-24.5 -33l-68 34q3 21 15.5 40.5t30.5 34.5t39.5 24.5t42.5 9.5q17 0 30.5 -6.5t25.5 -14l22.5 -14t21.5 -6.5q14 0 28 12t24 33z" />
    <glyph glyph-name="adieresis" unicode="&#xe4;" horiz-adv-x="597" 
d="M429 346q-9 11 -22 20q-11 8 -29.5 14t-44.5 6q-29 0 -56 -13.5t-47 -37t-32 -55t-12 -67.5q0 -53 30 -82.5t75 -29.5q23 0 42 5.5t32 13.5q15 9 27 20zM520 164q-2 -8 -3.5 -17.5t-1.5 -15.5q0 -13 11.5 -23t37.5 -13l-58 -105q-26 0 -44.5 7.5t-31.5 16.5
q-15 11 -25 23q-18 -13 -40 -24q-19 -9 -46 -16t-59 -7q-41 0 -77.5 13.5t-63.5 40.5t-43 66.5t-16 92.5q0 63 23 116.5t60.5 92.5t86 61t99.5 22q32 0 56 -7.5t39 -15.5q18 -10 29 -22l14 36h110zM319 545q-42 4 -68.5 15.5t-42.5 22.5q-18 13 -28 29l47 102q12 -12 30 -22
q14 -8 35.5 -15.5t48.5 -9.5zM529 545q-42 4 -68.5 15.5t-42.5 22.5q-18 13 -27 29l47 102q13 -12 30 -22q14 -8 35 -15.5t48 -9.5z" />
    <glyph glyph-name="aring" unicode="&#xe5;" horiz-adv-x="597" 
d="M429 346q-9 11 -22 20q-11 8 -29.5 14t-44.5 6q-29 0 -56 -13.5t-47 -37t-32 -55t-12 -67.5q0 -53 30 -82.5t75 -29.5q23 0 42 5.5t32 13.5q15 9 27 20zM520 164q-2 -8 -3.5 -17.5t-1.5 -15.5q0 -13 11.5 -23t37.5 -13l-58 -105q-26 0 -44.5 7.5t-31.5 16.5
q-15 11 -25 23q-18 -13 -40 -24q-19 -9 -46 -16t-59 -7q-41 0 -77.5 13.5t-63.5 40.5t-43 66.5t-16 92.5q0 63 23 116.5t60.5 92.5t86 61t99.5 22q32 0 56 -7.5t39 -15.5q18 -10 29 -22l14 36h110zM349 534q-46 0 -74.5 26t-28.5 67q0 27 11 49.5t29.5 38.5t43 24.5
t51.5 8.5q45 0 74 -28t29 -67q0 -26 -11 -48t-29.5 -38t-43 -24.5t-51.5 -8.5zM357 598q21 0 35.5 14.5t14.5 34.5q0 15 -10 25.5t-25 10.5q-20 0 -35.5 -13t-15.5 -36q0 -14 10.5 -25t25.5 -11z" />
    <glyph glyph-name="ae" unicode="&#xe6;" horiz-adv-x="890" 
d="M554 457q16 10 36 19q17 8 41 14t53 6q91 0 141 -50t50 -142q0 -18 -3 -37t-6 -34q-4 -18 -9 -35h-338q2 -40 28.5 -68.5t82.5 -28.5q26 0 51 7t45 16q23 10 44 23l34 -99q-27 -17 -58 -29q-26 -11 -61 -20t-73 -9q-34 0 -59.5 6.5t-42.5 14.5q-20 9 -35 21l-5 -32h-99
l2 33q-14 -12 -32 -21q-16 -8 -39.5 -14.5t-55.5 -6.5q-37 0 -71 13.5t-59.5 40t-40.5 66t-15 92.5q0 63 22.5 116t59.5 91.5t85 60.5t99 22q31 0 53 -6t36 -14t21.5 -15t8.5 -8l12 36h101zM422 346q-8 11 -20 20q-11 8 -28.5 14t-43.5 6q-29 0 -55.5 -13.5t-46 -37t-31 -55
t-11.5 -67.5q0 -53 26 -82.5t70 -29.5q24 0 42.5 5.5t32.5 13.5q15 8 27 19zM756 294v11q0 13 -4.5 27t-15 26t-29 19.5t-45.5 7.5q-45 0 -78 -27.5t-49 -63.5h221z" />
    <glyph glyph-name="ccedilla" unicode="&#xe7;" horiz-adv-x="532" 
d="M164 -158q6 -4 14 -7q7 -2 16 -4t21 -2q11 0 23.5 10t12.5 23q0 11 -6 19t-17 8q-8 0 -13.5 -1t-10.5 -3l-9 -3l-23 47l50 68q-74 17 -117.5 71.5t-43.5 135.5q0 64 24.5 118t66 92.5t95 60t111.5 21.5q51 0 85.5 -15t56.5 -35.5t32 -42.5t13 -36l-113 -49
q-8 26 -30.5 46.5t-60.5 20.5q-29 0 -57 -12.5t-50 -35.5t-35 -54.5t-13 -68.5q0 -51 31 -82t83 -31q28 0 54.5 7t47.5 16q25 11 47 24l32 -101q-21 -12 -47 -23q-22 -9 -51.5 -18t-61.5 -13l-27 -39q31 -5 48.5 -27t17.5 -52t-13.5 -54t-34.5 -40t-47 -24.5t-51 -8.5
q-20 0 -37 3.5t-30 8.5q-15 5 -27 12z" />
    <glyph glyph-name="egrave" unicode="&#xe8;" horiz-adv-x="568" 
d="M187 198q2 -40 31 -68.5t85 -28.5q26 0 51.5 7t46.5 16q25 10 47 23l34 -99q-28 -17 -61 -29q-28 -11 -63 -20t-73 -9q-48 0 -89 14.5t-71 42t-47 67.5t-17 92q0 58 23 111t62.5 92.5t93.5 63t117 23.5q91 0 143.5 -50t52.5 -142q0 -18 -3 -37t-6 -34q-4 -18 -9 -35h-348
zM434 294v11q0 13 -5 27t-17 26t-31 19.5t-46 7.5q-45 0 -80.5 -27.5t-51.5 -63.5h231zM457 540q-48 10 -83.5 30t-59.5 40q-28 24 -48 51l94 87l144 -147z" />
    <glyph glyph-name="eacute" unicode="&#xe9;" horiz-adv-x="568" 
d="M187 198q2 -40 31 -68.5t85 -28.5q26 0 51.5 7t46.5 16q25 10 47 23l34 -99q-28 -17 -61 -29q-28 -11 -63 -20t-73 -9q-48 0 -89 14.5t-71 42t-47 67.5t-17 92q0 58 23 111t62.5 92.5t93.5 63t117 23.5q91 0 143.5 -50t52.5 -142q0 -18 -3 -37t-6 -34q-4 -18 -9 -35h-348
zM434 294v11q0 13 -5 27t-17 26t-31 19.5t-46 7.5q-45 0 -80.5 -27.5t-51.5 -63.5h231zM256 601l196 147l62 -87q-29 -27 -65 -51q-31 -20 -74 -40t-94 -30z" />
    <glyph glyph-name="ecircumflex" unicode="&#xea;" horiz-adv-x="568" 
d="M187 198q2 -40 31 -68.5t85 -28.5q26 0 51.5 7t46.5 16q25 10 47 23l34 -99q-28 -17 -61 -29q-28 -11 -63 -20t-73 -9q-48 0 -89 14.5t-71 42t-47 67.5t-17 92q0 58 23 111t62.5 92.5t93.5 63t117 23.5q91 0 143.5 -50t52.5 -142q0 -18 -3 -37t-6 -34q-4 -18 -9 -35h-348
zM434 294v11q0 13 -5 27t-17 26t-31 19.5t-46 7.5q-45 0 -80.5 -27.5t-51.5 -63.5h231zM223 610l136 110h90l98 -110l-46 -58q-22 6 -42 18t-36 24q-18 14 -35 31q-21 -17 -45 -31q-20 -12 -45 -24.5t-49 -18.5z" />
    <glyph glyph-name="edieresis" unicode="&#xeb;" horiz-adv-x="568" 
d="M187 198q2 -40 31 -68.5t85 -28.5q26 0 51.5 7t46.5 16q25 10 47 23l34 -99q-28 -17 -61 -29q-28 -11 -63 -20t-73 -9q-48 0 -89 14.5t-71 42t-47 67.5t-17 92q0 58 23 111t62.5 92.5t93.5 63t117 23.5q91 0 143.5 -50t52.5 -142q0 -18 -3 -37t-6 -34q-4 -18 -9 -35h-348
zM434 294v11q0 13 -5 27t-17 26t-31 19.5t-46 7.5q-45 0 -80.5 -27.5t-51.5 -63.5h231zM336 545q-42 4 -68.5 15.5t-42.5 22.5q-18 13 -28 29l47 102q12 -12 30 -22q14 -8 35.5 -15.5t48.5 -9.5zM546 545q-42 4 -68.5 15.5t-42.5 22.5q-18 13 -27 29l47 102q13 -12 30 -22
q14 -8 35 -15.5t48 -9.5z" />
    <glyph glyph-name="igrave" unicode="&#xec;" horiz-adv-x="310" 
d="M269 486l-57 -318l-3.5 -18t-2.5 -18q0 -14 10.5 -23.5t36.5 -14.5l-57 -104q-23 0 -45 7.5t-38.5 20.5t-26.5 30.5t-10 37.5q0 8 1 17.5t2 13.5l64 369h126zM309 540q-48 10 -83.5 30t-59.5 40q-28 24 -48 51l94 87l144 -147z" />
    <glyph glyph-name="iacute" unicode="&#xed;" horiz-adv-x="310" 
d="M269 486l-57 -318l-3.5 -18t-2.5 -18q0 -14 10.5 -23.5t36.5 -14.5l-57 -104q-23 0 -45 7.5t-38.5 20.5t-26.5 30.5t-10 37.5q0 8 1 17.5t2 13.5l64 369h126zM123 601l196 147l62 -87q-29 -27 -65 -51q-31 -20 -74 -40t-94 -30z" />
    <glyph glyph-name="icircumflex" unicode="&#xee;" horiz-adv-x="310" 
d="M269 486l-57 -318l-3.5 -18t-2.5 -18q0 -14 10.5 -23.5t36.5 -14.5l-57 -104q-23 0 -45 7.5t-38.5 20.5t-26.5 30.5t-10 37.5q0 8 1 17.5t2 13.5l64 369h126zM71 610l136 110h90l98 -110l-46 -58q-22 6 -42 18t-36 24q-18 14 -35 31q-21 -17 -45 -31q-20 -12 -45 -24.5
t-49 -18.5z" />
    <glyph glyph-name="idieresis" unicode="&#xef;" horiz-adv-x="310" 
d="M269 486l-57 -318l-3.5 -18t-2.5 -18q0 -14 10.5 -23.5t36.5 -14.5l-57 -104q-23 0 -45 7.5t-38.5 20.5t-26.5 30.5t-10 37.5q0 8 1 17.5t2 13.5l64 369h126zM189 545q-42 4 -68.5 15.5t-42.5 22.5q-18 13 -28 29l47 102q12 -12 30 -22q14 -8 35.5 -15.5t48.5 -9.5z
M399 545q-42 4 -68.5 15.5t-42.5 22.5q-18 13 -27 29l47 102q13 -12 30 -22q14 -8 35 -15.5t48 -9.5z" />
    <glyph glyph-name="eth" unicode="&#xf0;" horiz-adv-x="582" 
d="M283 565l62 36l-8 2q-10 2 -22 2q-13 0 -26 -3t-24 -6l-25 -8l-8 106l35 8q15 3 33 6t35 3q30 0 52.5 -7t37.5 -15q18 -10 31 -21l83 48l40 -78l-69 -39q11 -20 21 -50q8 -26 14.5 -64.5t6.5 -92.5q0 -96 -20.5 -170.5t-58.5 -125.5t-91.5 -78t-119.5 -27q-50 0 -90 15
t-67.5 42t-42.5 65t-15 84q0 59 21.5 110t58.5 89t86.5 59.5t104.5 21.5q44 0 70.5 -11.5t44.5 -27.5q0 25 -6.5 55t-18.5 47l-88 -52zM265 99q40 0 70 18t49 46.5t28.5 64t9.5 70.5q0 2 -0.5 4.5t-0.5 7.5q-10 16 -25 29q-13 11 -32.5 20.5t-48.5 9.5q-32 0 -59.5 -12.5
t-47.5 -34.5t-31.5 -52t-11.5 -66q0 -46 25.5 -75.5t74.5 -29.5z" />
    <glyph glyph-name="ntilde" unicode="&#xf1;" horiz-adv-x="615" 
d="M251 441q24 15 51 27q23 11 53.5 19.5t65.5 8.5q75 0 108 -39t33 -106q0 -31 -6 -65l-22 -120q-2 -8 -4 -20.5t-2 -17.5q0 -11 10.5 -20t36.5 -14l-57 -104q-23 0 -45 7.5t-38.5 21t-26.5 31.5t-10 39q0 6 0.5 13t1.5 12l31 175q1 5 2 14t1 16q0 65 -60 65q-26 0 -51 -10
t-45 -21q-23 -13 -44 -30l-57 -323h-124l86 486h115zM575 665q-4 -20 -16.5 -39t-30 -35t-38 -25.5t-41.5 -9.5q-18 0 -32.5 6.5t-26.5 14l-23 14t-21 6.5q-13 0 -26.5 -12t-24.5 -33l-68 34q3 21 15.5 40.5t30.5 34.5t39.5 24.5t42.5 9.5q17 0 30.5 -6.5t25.5 -14l22.5 -14
t21.5 -6.5q14 0 28 12t24 33z" />
    <glyph glyph-name="ograve" unicode="&#xf2;" horiz-adv-x="596" 
d="M282 -10q-50 0 -91 16t-70 44.5t-44.5 67.5t-15.5 86q0 63 24 116.5t64.5 92.5t93.5 61t110 22q51 0 92.5 -16.5t70.5 -45t44.5 -67t15.5 -83.5q0 -67 -25 -121.5t-66 -92.5t-94 -59t-109 -21zM296 101q29 0 57 12t50 34.5t35.5 54.5t13.5 71q0 25 -8.5 46t-23.5 35.5
t-35.5 22.5t-44.5 8q-29 0 -56.5 -12t-49.5 -34.5t-35 -54t-13 -70.5q0 -51 31.5 -82t78.5 -31zM451 540q-48 10 -83.5 30t-59.5 40q-28 24 -48 51l94 87l144 -147z" />
    <glyph glyph-name="oacute" unicode="&#xf3;" horiz-adv-x="596" 
d="M282 -10q-50 0 -91 16t-70 44.5t-44.5 67.5t-15.5 86q0 63 24 116.5t64.5 92.5t93.5 61t110 22q51 0 92.5 -16.5t70.5 -45t44.5 -67t15.5 -83.5q0 -67 -25 -121.5t-66 -92.5t-94 -59t-109 -21zM296 101q29 0 57 12t50 34.5t35.5 54.5t13.5 71q0 25 -8.5 46t-23.5 35.5
t-35.5 22.5t-44.5 8q-29 0 -56.5 -12t-49.5 -34.5t-35 -54t-13 -70.5q0 -51 31.5 -82t78.5 -31zM252 601l196 147l62 -87q-29 -27 -65 -51q-31 -20 -74 -40t-94 -30z" />
    <glyph glyph-name="ocircumflex" unicode="&#xf4;" horiz-adv-x="596" 
d="M282 -10q-50 0 -91 16t-70 44.5t-44.5 67.5t-15.5 86q0 63 24 116.5t64.5 92.5t93.5 61t110 22q51 0 92.5 -16.5t70.5 -45t44.5 -67t15.5 -83.5q0 -67 -25 -121.5t-66 -92.5t-94 -59t-109 -21zM296 101q29 0 57 12t50 34.5t35.5 54.5t13.5 71q0 25 -8.5 46t-23.5 35.5
t-35.5 22.5t-44.5 8q-29 0 -56.5 -12t-49.5 -34.5t-35 -54t-13 -70.5q0 -51 31.5 -82t78.5 -31zM217 610l136 110h90l98 -110l-46 -58q-22 6 -42 18t-36 24q-18 14 -35 31q-21 -17 -45 -31q-20 -12 -45 -24.5t-49 -18.5z" />
    <glyph glyph-name="otilde" unicode="&#xf5;" horiz-adv-x="596" 
d="M282 -10q-50 0 -91 16t-70 44.5t-44.5 67.5t-15.5 86q0 63 24 116.5t64.5 92.5t93.5 61t110 22q51 0 92.5 -16.5t70.5 -45t44.5 -67t15.5 -83.5q0 -67 -25 -121.5t-66 -92.5t-94 -59t-109 -21zM296 101q29 0 57 12t50 34.5t35.5 54.5t13.5 71q0 25 -8.5 46t-23.5 35.5
t-35.5 22.5t-44.5 8q-29 0 -56.5 -12t-49.5 -34.5t-35 -54t-13 -70.5q0 -51 31.5 -82t78.5 -31zM554 665q-4 -20 -16.5 -39t-30 -35t-38 -25.5t-41.5 -9.5q-18 0 -32.5 6.5t-26.5 14l-23 14t-21 6.5q-13 0 -26.5 -12t-24.5 -33l-68 34q3 21 15.5 40.5t30.5 34.5t39.5 24.5
t42.5 9.5q17 0 30.5 -6.5t25.5 -14l22.5 -14t21.5 -6.5q14 0 28 12t24 33z" />
    <glyph glyph-name="odieresis" unicode="&#xf6;" horiz-adv-x="596" 
d="M282 -10q-50 0 -91 16t-70 44.5t-44.5 67.5t-15.5 86q0 63 24 116.5t64.5 92.5t93.5 61t110 22q51 0 92.5 -16.5t70.5 -45t44.5 -67t15.5 -83.5q0 -67 -25 -121.5t-66 -92.5t-94 -59t-109 -21zM296 101q29 0 57 12t50 34.5t35.5 54.5t13.5 71q0 25 -8.5 46t-23.5 35.5
t-35.5 22.5t-44.5 8q-29 0 -56.5 -12t-49.5 -34.5t-35 -54t-13 -70.5q0 -51 31.5 -82t78.5 -31zM330 545q-42 4 -68.5 15.5t-42.5 22.5q-18 13 -28 29l47 102q12 -12 30 -22q14 -8 35.5 -15.5t48.5 -9.5zM540 545q-42 4 -68.5 15.5t-42.5 22.5q-18 13 -27 29l47 102
q13 -12 30 -22q14 -8 35 -15.5t48 -9.5z" />
    <glyph glyph-name="divide" unicode="&#xf7;" horiz-adv-x="625" 
d="M557 204h-465l21 120h465zM379 134l-24 -134h-134l24 134h134zM448 528l-23 -134h-134l23 134h134z" />
    <glyph glyph-name="oslash" unicode="&#xf8;" horiz-adv-x="596" 
d="M92 87q-31 51 -31 117q0 63 24 116.5t64.5 92.5t93.5 61t110 22q40 0 74 -10t60 -28l56 52l57 -58l-56 -53q15 -25 23.5 -54t8.5 -61q0 -67 -25 -121.5t-66 -92.5t-94 -59t-109 -21q-78 0 -133 37l-56 -53l-58 60zM296 101q29 0 57 12t50 34.5t35.5 54.5t13.5 71
q0 17 -5 35l-206 -194q23 -13 55 -13zM186 214q0 -20 4 -35l205 192q-25 14 -55 14q-29 0 -56.5 -12t-49.5 -34.5t-35 -54t-13 -70.5z" />
    <glyph glyph-name="ugrave" unicode="&#xf9;" horiz-adv-x="611" 
d="M260 486l-52 -295q-2 -9 -3 -18.5t-1 -16.5q0 -29 19.5 -41.5t53.5 -12.5q23 0 46 6.5t40 14.5q20 9 39 21l60 342h124l-60 -339q-1 -5 -1.5 -9.5t-0.5 -8.5q0 -13 10.5 -22t36.5 -12l-56 -105q-24 0 -42.5 7t-32.5 16q-16 10 -27 23q-25 -13 -52 -23q-23 -8 -53.5 -15
t-62.5 -7q-87 0 -127 39.5t-40 108.5q0 14 1 27.5t3 24.5l52 295h126zM450 540q-48 10 -83.5 30t-59.5 40q-28 24 -48 51l94 87l144 -147z" />
    <glyph glyph-name="uacute" unicode="&#xfa;" horiz-adv-x="611" 
d="M260 486l-52 -295q-2 -9 -3 -18.5t-1 -16.5q0 -29 19.5 -41.5t53.5 -12.5q23 0 46 6.5t40 14.5q20 9 39 21l60 342h124l-60 -339q-1 -5 -1.5 -9.5t-0.5 -8.5q0 -13 10.5 -22t36.5 -12l-56 -105q-24 0 -42.5 7t-32.5 16q-16 10 -27 23q-25 -13 -52 -23q-23 -8 -53.5 -15
t-62.5 -7q-87 0 -127 39.5t-40 108.5q0 14 1 27.5t3 24.5l52 295h126zM254 601l196 147l62 -87q-29 -27 -65 -51q-31 -20 -74 -40t-94 -30z" />
    <glyph glyph-name="ucircumflex" unicode="&#xfb;" horiz-adv-x="611" 
d="M260 486l-52 -295q-2 -9 -3 -18.5t-1 -16.5q0 -29 19.5 -41.5t53.5 -12.5q23 0 46 6.5t40 14.5q20 9 39 21l60 342h124l-60 -339q-1 -5 -1.5 -9.5t-0.5 -8.5q0 -13 10.5 -22t36.5 -12l-56 -105q-24 0 -42.5 7t-32.5 16q-16 10 -27 23q-25 -13 -52 -23q-23 -8 -53.5 -15
t-62.5 -7q-87 0 -127 39.5t-40 108.5q0 14 1 27.5t3 24.5l52 295h126zM220 610l136 110h90l98 -110l-46 -58q-22 6 -42 18t-36 24q-18 14 -35 31q-21 -17 -45 -31q-20 -12 -45 -24.5t-49 -18.5z" />
    <glyph glyph-name="udieresis" unicode="&#xfc;" horiz-adv-x="611" 
d="M260 486l-52 -295q-2 -9 -3 -18.5t-1 -16.5q0 -29 19.5 -41.5t53.5 -12.5q23 0 46 6.5t40 14.5q20 9 39 21l60 342h124l-60 -339q-1 -5 -1.5 -9.5t-0.5 -8.5q0 -13 10.5 -22t36.5 -12l-56 -105q-24 0 -42.5 7t-32.5 16q-16 10 -27 23q-25 -13 -52 -23q-23 -8 -53.5 -15
t-62.5 -7q-87 0 -127 39.5t-40 108.5q0 14 1 27.5t3 24.5l52 295h126zM332 545q-42 4 -68.5 15.5t-42.5 22.5q-18 13 -28 29l47 102q12 -12 30 -22q14 -8 35.5 -15.5t48.5 -9.5zM542 545q-42 4 -68.5 15.5t-42.5 22.5q-18 13 -27 29l47 102q13 -12 30 -22q14 -8 35 -15.5
t48 -9.5z" />
    <glyph glyph-name="yacute" unicode="&#xfd;" horiz-adv-x="577" 
d="M226 0h-31l-52 304q-6 35 -18.5 59.5t-47.5 31.5l69 102q59 -5 85.5 -34t31.5 -69l39 -270l203 362h135l-302 -524q-30 -51 -55.5 -84.5t-52 -53t-56 -27t-65.5 -7.5q-15 0 -30 2.5t-28 5.5q-15 4 -28 8l44 110q8 -4 18 -8q17 -7 36 -7q11 0 22 2.5t22.5 10.5t23 22.5
t23.5 37.5zM265 601l196 147l62 -87q-29 -27 -65 -51q-31 -20 -74 -40t-94 -30z" />
    <glyph glyph-name="thorn" unicode="&#xfe;" horiz-adv-x="589" 
d="M209 133q8 -9 21 -16q11 -6 27.5 -10.5t39.5 -4.5q31 0 59 14t49.5 37.5t34 55t12.5 66.5q0 52 -29 81t-76 29q-23 0 -41 -7t-32 -15q-16 -10 -28 -22zM185 701h124l-43 -247q14 11 33 21q17 8 40.5 14.5t55.5 6.5q37 0 70.5 -13.5t58.5 -40.5t39.5 -66.5t14.5 -91.5
q0 -61 -22.5 -114.5t-60.5 -93t-88 -62.5t-105 -23q-31 0 -52 4.5t-35 10.5q-16 7 -26 16l-39 -222h-124z" />
    <glyph glyph-name="ydieresis" unicode="&#xff;" horiz-adv-x="577" 
d="M226 0h-31l-52 304q-6 35 -18.5 59.5t-47.5 31.5l69 102q59 -5 85.5 -34t31.5 -69l39 -270l203 362h135l-302 -524q-30 -51 -55.5 -84.5t-52 -53t-56 -27t-65.5 -7.5q-15 0 -30 2.5t-28 5.5q-15 4 -28 8l44 110q8 -4 18 -8q17 -7 36 -7q11 0 22 2.5t22.5 10.5t23 22.5
t23.5 37.5zM345 545q-42 4 -68.5 15.5t-42.5 22.5q-18 13 -28 29l47 102q12 -12 30 -22q14 -8 35.5 -15.5t48.5 -9.5zM555 545q-42 4 -68.5 15.5t-42.5 22.5q-18 13 -27 29l47 102q13 -12 30 -22q14 -8 35 -15.5t48 -9.5z" />
    <glyph glyph-name="dotlessi" unicode="&#x131;" horiz-adv-x="310" 
d="M269 486l-57 -318l-3.5 -18t-2.5 -18q0 -14 10.5 -23.5t36.5 -14.5l-57 -104q-23 0 -45 7.5t-38.5 20.5t-26.5 30.5t-10 37.5q0 8 1 17.5t2 13.5l64 369h126z" />
    <glyph glyph-name="OE" unicode="&#x152;" horiz-adv-x="981" 
d="M910 0h-429l2 16q-17 -8 -37 -13q-17 -5 -41.5 -9t-53.5 -4q-58 0 -109 22t-88.5 61.5t-59 94.5t-21.5 121q0 94 33 171.5t88.5 133t127.5 86t149 30.5q32 0 56 -4t41 -9q19 -6 33 -13l3 16h421l-21 -119h-289l-28 -160h279l-21 -118h-279l-32 -184h297zM579 556
q-10 10 -26 18q-14 7 -34.5 12.5t-49.5 5.5q-49 0 -95 -22t-81.5 -61.5t-57 -94t-21.5 -119.5q0 -42 12 -76.5t34.5 -59t54 -37.5t69.5 -13q29 0 51.5 5.5t38.5 12.5q18 8 32 18z" />
    <glyph glyph-name="oe" unicode="&#x153;" horiz-adv-x="925" 
d="M274 -10q-50 0 -90 16t-67.5 44.5t-42 67.5t-14.5 86q0 63 23 116.5t62 92.5t91 61t109 22q48 0 82 -13.5t56 -29.5q26 -19 41 -43q24 24 55 43q26 16 62 29.5t78 13.5q91 0 141 -50t50 -142q0 -18 -3 -37t-6 -34q-4 -18 -9 -35h-338q2 -40 28.5 -68.5t82.5 -28.5
q26 0 51 7t45 16q23 10 44 23l34 -99q-27 -17 -58 -29q-26 -11 -61 -20t-73 -9q-52 0 -86 12t-54 26q-24 17 -37 39q-22 -22 -52 -39q-26 -14 -62 -26t-82 -12zM288 101q29 0 56.5 12t48.5 34.5t33.5 54.5t12.5 71q0 51 -29.5 81.5t-77.5 30.5q-29 0 -55.5 -12t-47 -34.5
t-32.5 -54t-12 -70.5q0 -51 28 -82t75 -31zM791 294v11q0 13 -4.5 27t-15 26t-29 19.5t-45.5 7.5q-45 0 -78 -27.5t-49 -63.5h221z" />
    <glyph glyph-name="Scaron" unicode="&#x160;" horiz-adv-x="632" 
d="M108 170q26 -18 56 -31q26 -12 57.5 -21.5t66.5 -9.5t64.5 8.5t50.5 24t33 36t12 44.5q0 29 -24.5 45t-61.5 27t-79.5 22t-79.5 30t-61.5 50.5t-24.5 84.5q0 54 23 97t62.5 72.5t94 45t117.5 15.5q51 0 92 -8.5t70 -18.5q34 -12 61 -27l-78 -109q-20 12 -46 22
q-22 8 -52 15.5t-65 7.5q-24 0 -48 -5t-44 -15.5t-32.5 -26.5t-12.5 -39q0 -26 24.5 -40.5t61.5 -25.5t80.5 -22.5t80.5 -32.5t61.5 -55.5t24.5 -90.5q0 -48 -20 -93t-59.5 -79.5t-98.5 -55.5t-138 -21q-56 0 -100 11t-76 25q-37 16 -65 37zM320 934q22 -7 42.5 -19
t36.5 -24q18 -14 34 -31q21 16 45 30q20 12 45 24.5t49 18.5l26 -58l-136 -110h-90l-98 110z" />
    <glyph glyph-name="scaron" unicode="&#x161;" horiz-adv-x="485" 
d="M99 144q19 -12 39 -22q17 -8 39.5 -15t47.5 -7q43 0 68 16t25 39q0 16 -17 24.5t-42.5 15.5l-55 15t-55 22.5t-42.5 38.5t-17 63q0 34 17 63.5t46.5 51.5t69.5 34.5t86 12.5q44 0 76.5 -6.5t54.5 -14.5q26 -9 44 -20l-71 -97q-17 8 -36 14q-17 5 -37.5 10t-41.5 5
q-30 0 -54.5 -9.5t-24.5 -30.5q0 -13 17 -20t42.5 -14l55.5 -15.5t55.5 -24t42.5 -41t17 -65.5q0 -35 -15.5 -67t-45.5 -56t-74.5 -38.5t-103.5 -14.5q-41 0 -73.5 8t-55.5 19q-27 12 -49 28zM212 720q22 -7 42.5 -19t36.5 -24q18 -14 34 -31q21 16 45 30q20 12 45 24.5
t49 18.5l26 -58l-136 -110h-90l-98 110z" />
    <glyph glyph-name="Ydieresis" unicode="&#x178;" horiz-adv-x="630" 
d="M712 700l-310 -415l-50 -285h-136l51 290l-165 410h152l100 -292h4l199 292h155zM388 759q-42 4 -68.5 15.5t-42.5 22.5q-18 13 -28 29l47 102q12 -12 30 -22q14 -8 35.5 -15.5t48.5 -9.5zM598 759q-42 4 -68.5 15.5t-42.5 22.5q-18 13 -27 29l47 102q13 -12 30 -22
q14 -8 35 -15.5t48 -9.5z" />
    <glyph glyph-name="Zcaron" unicode="&#x17d;" horiz-adv-x="638" 
d="M552 0h-533l19 110l436 471h-341l21 119h515l-19 -110l-435 -471h358zM318 934q22 -7 42.5 -19t36.5 -24q18 -14 34 -31q21 16 45 30q20 12 45 24.5t49 18.5l26 -58l-136 -110h-90l-98 110z" />
    <glyph glyph-name="zcaron" unicode="&#x17e;" horiz-adv-x="526" 
d="M454 0h-426l19 108l303 270h-246l19 108h410l-19 -109l-300 -267h259zM231 720q22 -7 42.5 -19t36.5 -24q18 -14 34 -31q21 16 45 30q20 12 45 24.5t49 18.5l26 -58l-136 -110h-90l-98 110z" />
    <glyph glyph-name="florin" unicode="&#x192;" 
d="M326 30q-5 -31 -18.5 -61t-36 -54t-53.5 -39t-72 -15q-19 0 -39.5 3t-37.5 7q-20 4 -40 10l53 108q10 -4 21 -7q10 -3 22.5 -5t26.5 -2q17 0 32.5 16.5t20.5 45.5l47 268h-160l21 116h160l21 124q6 37 23 67.5t41.5 52t55 33.5t64.5 12q23 0 44.5 -3t39.5 -7
q20 -4 40 -10l-48 -112q-13 3 -27 7q-12 3 -26 5.5t-26 2.5q-20 0 -36.5 -12t-21.5 -38l-21 -122h177l-21 -116h-179z" />
    <glyph glyph-name="circumflex" unicode="&#x2c6;" horiz-adv-x="324" 
d="M51 610l136 110h90l98 -110l-46 -58q-22 6 -42 18t-36 24q-18 14 -35 31q-21 -17 -45 -31q-20 -12 -45 -24.5t-49 -18.5z" />
    <glyph glyph-name="tilde" unicode="&#x2dc;" horiz-adv-x="334" 
d="M396 665q-4 -20 -16.5 -39t-30 -35t-38 -25.5t-41.5 -9.5q-18 0 -32.5 6.5t-26.5 14l-23 14t-21 6.5q-13 0 -26.5 -12t-24.5 -33l-68 34q3 21 15.5 40.5t30.5 34.5t39.5 24.5t42.5 9.5q17 0 30.5 -6.5t25.5 -14l22.5 -14t21.5 -6.5q14 0 28 12t24 33z" />
    <glyph glyph-name="endash" unicode="&#x2013;" horiz-adv-x="475" 
d="M490 235h-475l20 111h475z" />
    <glyph glyph-name="emdash" unicode="&#x2014;" horiz-adv-x="887" 
d="M902 235h-887l20 111h887z" />
    <glyph glyph-name="quoteleft" unicode="&#x2018;" horiz-adv-x="296" 
d="M65 444q13 76 36.5 127.5t52.5 86t62 56t66 38.5l42 -67q-35 -24 -56.5 -52t-34.5 -58.5t-20 -63.5t-13 -67h-135z" />
    <glyph glyph-name="quoteright" unicode="&#x2019;" horiz-adv-x="296" 
d="M331 700q-14 -77 -37 -128t-52.5 -85.5t-62.5 -56t-66 -38.5l-41 67q35 24 56.5 52t34.5 58.5t20 63.5t13 67h135z" />
    <glyph glyph-name="quotesinglbase" unicode="&#x201a;" horiz-adv-x="301" 
d="M246 134q-14 -77 -37 -128t-52 -85.5t-62 -56t-66 -38.5l-36 67q34 24 55.5 52t34.5 58.5t20 63.5t13 67h130z" />
    <glyph glyph-name="quotedblleft" unicode="&#x201c;" horiz-adv-x="521" 
d="M290 445q13 76 36.5 127.5t53 86t62 56t65.5 38.5l42 -67q-35 -24 -56.5 -52t-34.5 -58.5t-20 -63.5t-13 -67h-135zM65 445q13 76 36.5 127.5t53 86t62 56t65.5 38.5l42 -67q-35 -24 -56.5 -52t-34.5 -58.5t-20 -63.5t-13 -67h-135z" />
    <glyph glyph-name="quotedblright" unicode="&#x201d;" horiz-adv-x="521" 
d="M331 700q-14 -77 -37 -128t-52.5 -85.5t-62.5 -56t-66 -38.5l-41 67q35 24 56.5 52t34.5 58.5t20 63.5t13 67h135zM556 700q-14 -77 -37 -128t-52.5 -85.5t-62.5 -56t-66 -38.5l-41 67q35 24 56.5 52t34.5 58.5t20 63.5t13 67h135z" />
    <glyph glyph-name="quotedblbase" unicode="&#x201e;" horiz-adv-x="531" 
d="M251 134q-14 -77 -37 -128t-52 -85.5t-62 -56t-66 -38.5l-41 67q34 24 55.5 52t34.5 58.5t20 63.5t13 67h135zM476 134q-14 -77 -37 -128t-52 -85.5t-62 -56t-66 -38.5l-42 67q35 24 56.5 52t34.5 58.5t20 63.5t13 67h135z" />
    <glyph glyph-name="dagger" unicode="&#x2020;" horiz-adv-x="583" 
d="M557 378h-160l-102 -578h-122l102 578h-161l19 108h161l38 213h122l-38 -213h160z" />
    <glyph glyph-name="daggerdbl" unicode="&#x2021;" horiz-adv-x="583" 
d="M491 1h-160l-36 -201h-122l36 201h-161l19 107h161l47 270h-161l19 108h161l38 213h122l-38 -213h160l-19 -108h-160l-47 -270h160z" />
    <glyph glyph-name="bullet" unicode="&#x2022;" horiz-adv-x="483" 
d="M123 338q0 31 12 58.5t33 48t48.5 32.5t58.5 12t58.5 -12t48 -32.5t32.5 -48t12 -58.5t-12 -58.5t-32.5 -48t-48 -32.5t-58.5 -12t-58.5 12t-48.5 32.5t-33 48t-12 58.5z" />
    <glyph glyph-name="ellipsis" unicode="&#x2026;" horiz-adv-x="882" 
d="M231 134l-23 -134h-134l23 134h134zM525 134l-23 -134h-134l23 134h134zM819 134l-23 -134h-134l23 134h134z" />
    <glyph glyph-name="perthousand" unicode="&#x2030;" horiz-adv-x="1317" 
d="M716 710h108l-551 -719h-107zM258 313q-68 0 -106 40.5t-38 110.5q0 54 15.5 99t42 78t61 51t73.5 18q67 0 104.5 -41.5t37.5 -112.5q0 -54 -15.5 -98.5t-42 -77t-61 -50t-71.5 -17.5zM262 407q15 0 29.5 10.5t25 29.5t17 45t6.5 57t-10.5 49t-30.5 18q-15 0 -29.5 -11
t-25 -30t-17 -45.5t-6.5 -57.5q0 -30 10.5 -47.5t30.5 -17.5zM687 -9q-68 0 -106 40.5t-38 110.5q0 54 15.5 99t42 78t61 51t73.5 18q67 0 104.5 -41.5t37.5 -112.5q0 -54 -15.5 -98.5t-42 -77t-61 -50t-71.5 -17.5zM691 85q15 0 29.5 10.5t25 29.5t17 45t6.5 57t-10.5 49
t-30.5 18q-15 0 -29.5 -11t-25 -30t-17 -45.5t-6.5 -57.5q0 -30 10.5 -47.5t30.5 -17.5zM1074 -9q-68 0 -106 40.5t-38 110.5q0 54 15.5 99t42 78t61 51t73.5 18q67 0 104.5 -41.5t37.5 -112.5q0 -54 -15.5 -98.5t-42 -77t-61 -50t-71.5 -17.5zM1078 85q15 0 29.5 10.5
t25 29.5t17 45t6.5 57t-10.5 49t-30.5 18q-15 0 -29.5 -11t-25 -30t-17 -45.5t-6.5 -57.5q0 -30 10.5 -47.5t30.5 -17.5z" />
    <glyph glyph-name="guilsinglleft" unicode="&#x2039;" horiz-adv-x="406" 
d="M341 49h-132l-116 219l193 219h132l-181 -219z" />
    <glyph glyph-name="guilsinglright" unicode="&#x203a;" horiz-adv-x="386" 
d="M359 268l-194 -219h-130l179 219l-25 53.5l-26.5 57.5l-26.5 56.5l-24 51.5h130z" />
    <glyph glyph-name="Euro" unicode="&#x20ac;" 
d="M70 470h41q24 54 61.5 98t85.5 75.5t105.5 49t122.5 17.5q29 0 56.5 -4.5t48.5 -9.5q25 -6 45 -14l-61 -113q-18 7 -37 12q-17 5 -38 8.5t-42 3.5q-60 0 -114 -33t-89 -90h270l-53 -94h-256q-3 -14 -5 -28.5t-3 -29.5h238l-53 -94h-176q17 -55 60.5 -86t110.5 -31
q29 0 61.5 6t58.5 15l11 -117q-32 -9 -68 -15t-74 -6q-60 0 -110.5 16t-89.5 46t-64.5 73.5t-34.5 98.5h-87l53 94h30q2 15 3.5 29.5t3.5 28.5h-64z" />
    <glyph glyph-name="trademark" unicode="&#x2122;" horiz-adv-x="764" 
d="M723 380h-89l33 186l-74 -90h-44l-38 86l-32 -182h-86l56 320h93l52 -112l86 112h99zM385 616h-97l-42 -236h-89l42 236h-98l14 84h284z" />
    </font>
</defs>
</svg>
